<?xml version="1.0" encoding="UTF-8" standalone="no"?>
<svg
   xmlns:dc="http://purl.org/dc/elements/1.1/"
   xmlns:cc="http://creativecommons.org/ns#"
   xmlns:rdf="http://www.w3.org/1999/02/22-rdf-syntax-ns#"
   xmlns:svg="http://www.w3.org/2000/svg"
   xmlns="http://www.w3.org/2000/svg"
   xmlns:sodipodi="http://sodipodi.sourceforge.net/DTD/sodipodi-0.dtd"
   xmlns:inkscape="http://www.inkscape.org/namespaces/inkscape"
   fill="#000000"
   height="24"
   viewBox="0 0 24 24"
   width="24"
   id="svg3196"
   version="1.1"
   inkscape:version="0.91 r13725"
   sodipodi:docname="bad.svg">
  <metadata
     id="metadata3210">
    <rdf:RDF>
      <cc:Work
         rdf:about="">
        <dc:format>image/svg+xml</dc:format>
        <dc:type
           rdf:resource="http://purl.org/dc/dcmitype/StillImage" />
        <dc:title />
      </cc:Work>
    </rdf:RDF>
  </metadata>
  <defs
     id="defs3208" />
  <sodipodi:namedview
     pagecolor="#ffffff"
     bordercolor="#666666"
     borderopacity="1"
     objecttolerance="10"
     gridtolerance="10"
     guidetolerance="10"
     inkscape:pageopacity="0"
     inkscape:pageshadow="2"
     inkscape:window-width="1855"
     inkscape:window-height="1056"
     id="namedview3206"
     showgrid="false"
     inkscape:zoom="9.8333333"
     inkscape:cx="-8.0766014"
     inkscape:cy="16.067797"
     inkscape:window-x="65"
     inkscape:window-y="24"
     inkscape:window-maximized="1"
     inkscape:current-layer="svg3196" />
  <path
     d="M0 0h24v24H0z"
     fill="none"
     id="path3198" />
  <circle
     cx="15.5"
     cy="9.5"
     r="1.5"
     id="circle3200" />
  <circle
     cx="8.5"
     cy="9.5"
     r="1.5"
     id="circle3202" />
  <path
     d="M11.99 2C6.47 2 2 6.48 2 12s4.47 10 9.99 10C17.52 22 22 17.52 22 12S17.52 2 11.99 2zM12 20c-4.42 0-8-3.58-8-8s3.58-8 8-8 8 3.58 8 8-3.58 8-8 8zm0-6c-2.33 0-4.32 1.45-5.12 3.5h1.67c.69-1.19 1.97-2 3.45-2s2.75.81 3.45 2h1.67c-.8-2.05-2.79-3.5-5.12-3.5z"
     id="path3204" />
  <path
     style="fill:#2b0000"
     d="M 7.8763903,10.784588 C 7.4054777,10.544464 7.1441791,10.160225 7.0890933,9.6268715 6.9691931,8.4659707 8.2929227,7.6498513 9.2723214,8.2808451 9.9340436,8.7071706 10.117301,9.7772409 9.6281468,10.358568 9.1385953,10.940367 8.4908334,11.0979 7.8763903,10.784588 Z"
     id="path3250"
     inkscape:connector-curvature="0" />
  <path
     style="fill:#2b0000"
     d="M 7.7919606,10.759871 C 6.7875024,10.147446 6.831298,8.7247705 7.8711884,8.1862004 8.7710952,7.7201293 9.9369579,8.4453753 9.9369579,9.4712498 c 0,1.1402232 -1.2030255,1.8629492 -2.1449973,1.2886212 z"
     id="path3252"
     inkscape:connector-curvature="0" />
  <path
     style="fill:#2b0000"
     d="m 14.888138,10.790071 c -1.357517,-0.703072 -0.90692,-2.7139302 0.608142,-2.7139302 0.814348,0 1.424154,0.6136702 1.423349,1.4323684 -0.001,1.0335068 -1.132377,1.7472228 -2.031491,1.2815618 z"
     id="path3254"
     inkscape:connector-curvature="0" />
  <path
     style="fill:#2b0000"
     d="M 14.835263,10.773502 C 14.34738,10.472139 14.153805,10.189454 14.098336,9.6973375 13.935568,8.2532642 15.561748,7.4758286 16.561774,8.5196302 c 0.372751,0.3890688 0.474154,1.1950727 0.211671,1.6824748 -0.358374,0.66546 -1.324698,0.950343 -1.938182,0.571397 z"
     id="path3256"
     inkscape:connector-curvature="0" />
  <path
     style="fill:#2b0000"
     d="m 7.0252177,17.29322 c 0.03571,-0.09788 0.2201233,-0.423484 0.4098074,-0.723561 0.7827392,-1.238282 2.0830765,-2.104702 3.6303139,-2.418893 0.669675,-0.135987 0.945465,-0.144459 1.627119,-0.04998 1.620735,0.224635 3.219587,1.28594 4.007576,2.660196 0.175869,0.306715 0.32019,0.591986 0.320716,0.633935 5.25e-4,0.04195 -0.326443,0.07627 -0.726594,0.07627 l -0.727547,0 -0.543187,-0.600241 c -1.313394,-1.451347 -3.085243,-1.813179 -4.781882,-0.976515 -0.6703005,0.330545 -1.6605143,1.216727 -1.6605143,1.48606 0,0.04988 -0.3646654,0.0907 -0.8103676,0.0907 -0.7287163,0 -0.8038257,-0.01793 -0.7454404,-0.177966 z"
     id="path3258"
     inkscape:connector-curvature="0" />
  <path
     style="fill:#2b0000"
     d="m 6.9548614,17.394915 c 0.00305,-0.243377 0.7285894,-1.281891 1.2610994,-1.805084 0.9547442,-0.938041 2.4769192,-1.57274 3.7718442,-1.57274 1.351811,0 2.829188,0.624273 3.824703,1.616148 0.545122,0.543129 1.209196,1.522723 1.209196,1.783719 0,0.02983 -0.366102,0.05423 -0.81356,0.05423 -0.447457,0 -0.813559,-0.04081 -0.813559,-0.0907 0,-0.04988 -0.203068,-0.316557 -0.451262,-0.592608 -0.809506,-0.900365 -2.221723,-1.448047 -3.343633,-1.296717 -1.106397,0.149238 -2.1598717,0.735183 -2.7399587,1.523971 l -0.329553,0.448118 -0.7881356,0.004 c -0.4334746,0.0022 -0.7877062,-0.03036 -0.7871813,-0.07231 z"
     id="path3260"
     inkscape:connector-curvature="0" />
  <path
     style="fill:#2b0000"
     d="m 6.9548614,17.394915 c 0.00305,-0.243377 0.7285894,-1.281891 1.2610994,-1.805084 0.9547442,-0.938041 2.4769192,-1.57274 3.7718442,-1.57274 1.351811,0 2.829188,0.624273 3.824703,1.616148 0.545122,0.543129 1.209196,1.522723 1.209196,1.783719 0,0.02983 -0.354661,0.05249 -0.788136,0.05037 l -0.788135,-0.0039 -0.276206,-0.399424 c -0.881518,-1.274774 -2.896974,-1.905402 -4.427029,-1.385199 -0.659635,0.224268 -1.6186692,0.918447 -1.9577824,1.417104 l -0.2542373,0.373849 -0.7881356,6.91e-4 c -0.4334746,3.86e-4 -0.7877062,-0.03362 -0.7871813,-0.07557 z"
     id="path3262"
     inkscape:connector-curvature="0" />
  <path
     style="fill:#2b0000"
     d="M 10.242881,21.802117 C 8.1010235,21.393424 6.3263427,20.417571 4.807647,18.813417 3.7728053,17.720344 3.0746907,16.585243 2.6225743,15.260591 2.1664574,13.924218 2.0369468,12.995115 2.1014451,11.522034 2.1678383,10.005674 2.4209882,9.0099952 3.0875321,7.6435971 4.3938969,4.9655823 6.672371,3.1115063 9.5968073,2.3467665 10.923306,1.9998873 12.889467,1.9809013 14.205464,2.3022636 c 3.689762,0.9010277 6.459637,3.6089583 7.454272,7.2875669 0.299218,1.1066445 0.276667,3.8753265 -0.0405,4.9723755 -1.021921,3.534725 -3.698921,6.164796 -7.217872,7.091341 -1.020913,0.268809 -3.132904,0.344263 -4.158483,0.14857 z m 3.441796,-1.93619 c 1.57141,-0.333042 2.740502,-0.988027 4.002127,-2.242198 0.746956,-0.742542 1.011619,-1.09231 1.402529,-1.853526 0.796115,-1.550269 1.102942,-3.203443 0.88644,-4.776113 C 19.595586,8.2323909 17.998271,6.0019998 15.547127,4.8102006 14.387208,4.246223 13.669385,4.0580412 12.394585,3.9837431 8.712645,3.7691517 5.2699804,6.2187417 4.2795322,9.7579195 4.0403233,10.612687 3.9939232,10.998597 3.9966569,12.110603 c 0.00893,3.630877 2.5263117,6.825659 6.0589451,7.689329 0.990443,0.242146 2.655095,0.272418 3.629075,0.066 z"
     id="path3264"
     inkscape:connector-curvature="0" />
  <path
     style="fill:#d40000"
     d="M 10.614924,21.884224 C 8.5243881,21.504752 6.9698768,20.790393 5.4644876,19.517397 4.0826321,18.348863 2.8478572,16.37251 2.3660162,14.558052 2.0929239,13.529675 1.9969153,11.463031 2.1717179,10.375663 2.6559638,7.3633901 4.6328448,4.6378852 7.3867975,3.1856881 12.916522,0.26978847 19.809829,3.1978373 21.549651,9.2015996 c 1.017153,3.5099834 0.07262,7.2241114 -2.492247,9.8001374 -1.904162,1.912444 -4.08892,2.841951 -6.815361,2.899605 -0.755085,0.01597 -1.487288,0.0083 -1.627119,-0.01712 z m 3.864407,-2.268503 c 1.114498,-0.376038 1.625466,-0.651959 2.531458,-1.366982 3.153302,-2.488634 3.936963,-7.050977 1.80004,-10.4795284 C 17.690097,5.9710682 16.006417,4.7581195 13.818314,4.1725243 12.963368,3.9437177 10.981739,3.9539296 10.106689,4.1916514 6.4169229,5.1940374 4.00302,8.2716825 4.005467,11.970505 c 0.00203,3.063498 1.6111846,5.749193 4.2614291,7.112354 1.4621561,0.752063 2.2654119,0.931903 3.9751469,0.889992 1.113037,-0.02728 1.391379,-0.07171 2.237288,-0.35713 z"
     id="path3266"
     inkscape:connector-curvature="0" />
  <path
     style="fill:#d40000"
     d="M 14.835263,10.773502 C 14.34738,10.472139 14.153805,10.189454 14.098336,9.6973375 13.935568,8.2532642 15.561748,7.4758286 16.561774,8.5196302 c 0.372751,0.3890688 0.474154,1.1950727 0.211671,1.6824748 -0.358374,0.66546 -1.324698,0.950343 -1.938182,0.571397 z"
     id="path3268"
     inkscape:connector-curvature="0" />
  <path
     style="fill:#d40000"
     d="M 15.049262,10.961978 C 14.363037,10.74923 13.87599,9.9240062 14.011218,9.2031772 14.269449,7.8266888 16.211104,7.5702809 16.84358,8.8291458 17.428801,9.9939576 16.290644,11.346839 15.049262,10.961978 Z"
     id="path3270"
     inkscape:connector-curvature="0" />
  <path
     style="fill:#d40000"
     d="M 7.7919606,10.759871 C 6.7875024,10.147446 6.831298,8.7247705 7.8711884,8.1862004 8.7710952,7.7201293 9.9369579,8.4453753 9.9369579,9.4712498 c 0,1.1402232 -1.2030255,1.8629492 -2.1449973,1.2886212 z"
     id="path3272"
     inkscape:connector-curvature="0" />
  <path
     style="fill:#d40000"
     d="M 8.1233986,10.994471 C 7.7590175,10.900451 7.2408196,10.435584 7.0851912,10.063113 6.7956761,9.3702055 7.1168535,8.5025467 7.7921182,8.1533538 8.2503747,7.9163801 9.11263,8.0064128 9.455877,8.3270756 c 0.784685,0.7330566 0.704405,1.9472934 -0.1629869,2.4651804 -0.2963048,0.176912 -0.877852,0.277467 -1.1694915,0.202215 z"
     id="path3274"
     inkscape:connector-curvature="0" />
  <path
     style="fill:#d40000"
     d="m 6.9548614,17.394915 c 0.00305,-0.243377 0.7285894,-1.281891 1.2610994,-1.805084 0.9716581,-0.954659 2.4676092,-1.569345 3.8318482,-1.574506 0.635708,-0.0024 1.926692,0.340231 2.566219,0.681092 0.699042,0.372582 1.805137,1.47726 2.139158,2.136418 0.147685,0.291443 0.268518,0.554298 0.268518,0.584123 0,0.02983 -0.354661,0.05082 -0.788136,0.04666 l -0.788135,-0.0076 -0.40678,-0.512636 c -0.834275,-1.051379 -2.34776,-1.632553 -3.643592,-1.39913 -1.049351,0.189024 -2.0487265,0.788619 -2.5760285,1.545541 l -0.265668,0.381355 -0.7997287,0 c -0.4398508,0 -0.7992993,-0.03432 -0.7987744,-0.07627 z"
     id="path3276"
     inkscape:connector-curvature="0" />
  <path
     style="fill:#d40000"
     d="m 6.8522122,17.510845 c 0,-0.255492 0.7713805,-1.421177 1.271202,-1.920999 2.1751018,-2.175102 5.8322848,-2.108919 7.8992078,0.142951 0.504994,0.550181 1.098027,1.473826 1.099823,1.712966 6.79e-4,0.09059 -0.22041,0.127118 -0.769426,0.127118 l -0.770379,0 -0.678773,-0.693153 c -0.979474,-1.000224 -2.042827,-1.425122 -3.284704,-1.312513 -1.039765,0.09428 -2.3417081,0.85198 -2.8347624,1.649758 l -0.2199632,0.355908 -0.8561126,0 c -0.470862,0 -0.8561126,-0.02792 -0.8561126,-0.06204 z"
     id="path3278"
     inkscape:connector-curvature="0" />
  <path
     style="fill:#d40000"
     d="m 6.8522122,17.510845 c 0,-0.03412 0.1487288,-0.343018 0.3305084,-0.686441 0.4151073,-0.78423 1.3834479,-1.750929 2.1782456,-2.174551 2.1995328,-1.172339 5.0111238,-0.715276 6.6616558,1.082944 0.504994,0.550181 1.098027,1.473826 1.099823,1.712966 6.79e-4,0.09059 -0.22041,0.127118 -0.769426,0.127118 l -0.770379,0 -0.678773,-0.693153 c -0.979474,-1.000224 -2.042827,-1.425122 -3.284704,-1.312513 -1.039765,0.09428 -2.3417081,0.85198 -2.8347624,1.649758 l -0.2199632,0.355908 -0.8561126,0 c -0.470862,0 -0.8561126,-0.02792 -0.8561126,-0.06204 z"
     id="path3280"
     inkscape:connector-curvature="0" />
  <path
     style="fill:#ff9955"
     d="M 10.564077,21.942717 C 5.8321553,21.211823 2.247522,17.272484 1.997342,12.528289 1.7460445,7.7629024 4.8393847,3.5569249 9.5471275,2.2629367 10.377661,2.034653 12.641351,1.9517606 13.643863,2.1129213 c 2.059446,0.3310698 3.820245,1.2582968 5.411739,2.8497902 1.543318,1.5433175 2.337018,3.0004879 2.769333,5.0842735 0.281233,1.355564 0.210282,3.321603 -0.167001,4.627591 -0.667514,2.310634 -2.10549,4.307228 -4.058785,5.635517 -0.787133,0.535271 -2.296811,1.205101 -3.225942,1.43132 -0.991597,0.241428 -2.897324,0.342141 -3.80913,0.201304 z m 3.365088,-2.236571 c 5.013527,-1.282157 7.498713,-6.8158 5.116996,-11.3937639 C 18.044983,6.387993 16.380075,5.0304904 14.169866,4.3364372 13.529674,4.1354033 13.197654,4.0985624 12.038653,4.099959 10.40952,4.1019219 9.7626538,4.2467496 8.4284834,4.9082435 4.4391419,6.8861956 2.8912629,11.750262 4.9802869,15.743881 c 1.0039788,1.919321 2.8956378,3.410162 5.0244681,3.959845 1.07481,0.277526 2.844417,0.278618 3.92441,0.0024 z"
     id="path3490"
     inkscape:connector-curvature="0" />
  <path
     style="fill:#ff9955"
     d="m 6.9220116,17.507087 c -0.1370606,-0.137061 0.6161802,-1.331789 1.2103321,-1.919729 1.100155,-1.088652 2.3258783,-1.575821 3.9530993,-1.571174 1.51752,0.0043 2.931323,0.620753 3.937179,1.716613 0.504994,0.55018 1.098027,1.473825 1.099823,1.712965 7.12e-4,0.09062 -0.220744,0.127119 -0.7711,0.127119 l -0.772054,0 -0.637288,-0.659627 C 14.493666,16.449201 14.096926,16.155221 13.603888,15.921728 12.97414,15.623492 12.810232,15.58983 11.987805,15.58983 c -0.788062,0 -0.999061,0.03925 -1.518318,0.282422 -0.7338176,0.343654 -1.390043,0.867331 -1.6850863,1.344721 l -0.2199633,0.355908 -0.788316,0 c -0.4335738,0 -0.8179232,-0.02961 -0.8541098,-0.06579 z"
     id="path3492"
     inkscape:connector-curvature="0" />
  <path
     style="fill:#ff9955"
     d="M 8.1233987,10.994471 C 7.7590175,10.90045 7.2408197,10.435583 7.0851913,10.063112 6.7956762,9.3702051 7.1168535,8.5025463 7.7921182,8.1533534 8.2503747,7.9163797 9.11263,8.0064124 9.455877,8.3270752 10.240562,9.0601318 10.160282,10.274368 9.2928902,10.792255 8.9965854,10.969168 8.4150381,11.069723 8.1233987,10.994471 Z"
     id="path3494"
     inkscape:connector-curvature="0" />
  <path
     style="fill:#ff6600"
     d="M 15.049262,10.961977 C 14.363037,10.74923 13.87599,9.9240058 14.011218,9.2031768 14.269449,7.8266884 16.211104,7.5702805 16.84358,8.8291454 17.428801,9.9939572 16.290644,11.346838 15.049262,10.961977 Z"
     id="path3496"
     inkscape:connector-curvature="0" />
  <path
     style="fill:#ff6600"
     d="m 10.909125,22.002676 c -0.03115,-0.03115 -0.303968,-0.08126 -0.606262,-0.111348 -0.302295,-0.03009 -0.5901368,-0.09522 -0.6396494,-0.144734 -0.049513,-0.04951 -0.1530904,-0.06582 -0.2301731,-0.03624 -0.077083,0.02958 -0.1401503,0.0046 -0.1401503,-0.0556 0,-0.06016 -0.068644,-0.08304 -0.1525424,-0.05085 -0.083898,0.03219 -0.1525424,0.0052 -0.1525424,-0.06004 0,-0.06522 -0.040049,-0.09383 -0.088997,-0.06357 -0.1238413,0.07654 -1.0296471,-0.24337 -1.0296471,-0.363645 0,-0.05398 -0.045763,-0.06986 -0.1016949,-0.03529 -0.055932,0.03457 -0.101695,0.01169 -0.101695,-0.05085 0,-0.06253 -0.045763,-0.08542 -0.1016949,-0.05085 -0.055932,0.03457 -0.1016949,0.01169 -0.1016949,-0.05085 0,-0.06253 -0.045763,-0.08542 -0.1016949,-0.05085 -0.055932,0.03457 -0.1016949,0.01169 -0.1016949,-0.05085 0,-0.06253 -0.044093,-0.08645 -0.097986,-0.05314 -0.053892,0.03331 -0.1873668,-0.02882 -0.2966102,-0.138066 C 6.7551525,20.526669 6.6462493,20.456811 6.6223888,20.48067 6.5985283,20.504531 6.4602511,20.413995 6.315106,20.279479 6.169961,20.144963 6.0307172,20.055393 6.0056756,20.080435 5.9806339,20.105476 5.8694779,20.0107 5.7586623,19.86982 5.6478466,19.728941 5.5343695,19.636486 5.5064907,19.664365 c -0.081666,0.08167 -1.6101169,-1.591614 -1.5470566,-1.693647 0.031528,-0.05101 0.00943,-0.09275 -0.049097,-0.09275 -0.1238544,0 -0.6513452,-0.802503 -0.6513452,-0.990931 0,-0.07024 -0.035052,-0.127713 -0.077893,-0.127713 -0.083704,0 -0.2467458,-0.407827 -0.213442,-0.533899 0.011082,-0.04195 -0.028315,-0.07627 -0.087548,-0.07627 -0.059233,0 -0.081829,-0.04185 -0.050214,-0.09301 0.031616,-0.05115 0.015627,-0.108358 -0.03553,-0.127119 -0.051157,-0.01876 -0.1086456,-0.125635 -0.1277523,-0.237499 -0.019107,-0.111864 -0.071406,-0.230421 -0.1162207,-0.263459 -0.044815,-0.03304 -0.095847,-0.170327 -0.1134049,-0.305085 -0.017558,-0.134759 -0.085725,-0.378754 -0.1514828,-0.542214 -0.065757,-0.163459 -0.098386,-0.352373 -0.072508,-0.41981 0.025878,-0.06744 -1.649e-4,-0.16983 -0.057873,-0.227539 -0.1383073,-0.138307 -0.1901173,-2.888026 -0.065554,-3.479181 0.053035,-0.251695 0.096695,-0.5368108 0.097023,-0.6335909 3.281e-4,-0.09678 0.044194,-0.2029082 0.097479,-0.2358405 0.053285,-0.032932 0.072804,-0.098838 0.043373,-0.1464569 -0.090301,-0.1461105 0.5671183,-1.8383492 0.6857087,-1.7650564 0.063733,0.039389 0.077811,0.018128 0.034452,-0.052028 C 2.957078,7.4747883 3.5784397,6.3623634 3.7065556,6.4415434 3.7574193,6.4729789 3.7736038,6.4324264 3.7425211,6.351426 3.710916,6.2690642 3.7783779,6.1394541 3.8955814,6.0573616 4.0108472,5.9766263 4.0806326,5.8860471 4.0506601,5.8560746 4.0206874,5.826102 4.146826,5.6741099 4.330968,5.5183145 4.5151099,5.362519 4.6563558,5.20273 4.6448476,5.1632277 4.6212136,5.0821026 5.1164782,4.5928877 5.1824391,4.632203 c 0.02346,0.013983 0.040296,-4.576e-4 0.037412,-0.032088 -0.00733,-0.080367 0.4948744,-0.4667497 0.5590191,-0.4300988 0.028862,0.016491 0.1251323,-0.073748 0.2139348,-0.2005315 0.088802,-0.1267832 0.1992951,-0.2071308 0.2455395,-0.1785502 0.046244,0.028581 0.1128345,-0.022966 0.147978,-0.114549 0.035143,-0.091582 0.089515,-0.140896 0.1208255,-0.1095853 0.031311,0.031311 0.1436022,-0.029746 0.249537,-0.1356805 C 6.8732714,3.3145336 7.0169974,3.2644913 7.1208255,3.3043338 7.2279286,3.3454331 7.2674777,3.3299012 7.2261194,3.2629821 7.1627577,3.1604605 7.7345946,2.853912 7.8945851,2.9046332 c 0.041949,0.013299 0.076271,-0.017381 0.076271,-0.068179 0,-0.1156992 1.2149721,-0.5331309 1.3352908,-0.4587699 0.048641,0.030062 0.088438,0.013523 0.088438,-0.036752 0,-0.160729 1.4379929,-0.3607998 2.5932199,-0.3607998 1.155227,0 2.593221,0.2000708 2.593221,0.3607998 0,0.050276 0.04005,0.066658 0.089,0.036407 0.116187,-0.071807 1.058431,0.2460703 1.155209,0.3897238 0.04109,0.060997 0.07541,0.07581 0.07627,0.032919 0.002,-0.1001122 1.045017,0.4235287 1.144068,0.5743719 0.04109,0.06258 0.07541,0.07881 0.07627,0.036068 0.0022,-0.1076962 0.815116,0.4397058 0.815116,0.5488549 0,0.0485 0.04174,0.07674 0.09275,0.062757 0.119731,-0.032821 1.563432,1.2506003 1.48971,1.3243223 -0.03066,0.030657 0.0347,0.1190843 0.145232,0.1965053 0.206225,0.144446 0.86889,1.046969 0.768722,1.046969 -0.03065,0 0.03746,0.093195 0.151366,0.2070992 0.113905,0.1139044 0.179848,0.2511925 0.146541,0.3050847 -0.03331,0.053892 -0.01765,0.097986 0.0348,0.097986 0.09106,0 0.359904,0.5373868 0.330323,0.6602869 -0.0078,0.032363 0.05875,0.1317518 0.147861,0.2208643 0.08911,0.089113 0.137945,0.2247663 0.108518,0.3014528 -0.02943,0.076686 -0.01281,0.1394299 0.03692,0.1394299 0.07602,0 0.20494,0.3642882 0.269925,0.7627119 0.0091,0.055932 0.02884,0.1474576 0.04381,0.2033898 0.01497,0.055932 0.03611,0.1474576 0.04698,0.2033898 0.01087,0.055932 0.061,0.1932204 0.111394,0.3050848 0.0504,0.1118642 0.08591,0.9584742 0.07893,1.8813562 -0.01565,2.066765 -0.01845,2.111709 -0.136486,2.184658 -0.05263,0.03253 -0.06992,0.126322 -0.03841,0.20843 0.03151,0.08211 0.0039,0.149285 -0.06129,0.149285 -0.06522,0 -0.09053,0.04537 -0.05626,0.100832 0.06805,0.110099 -0.25252,1.221202 -0.352331,1.221202 -0.03381,0 -0.06855,0.09379 -0.07718,0.208415 -0.02006,0.266288 -0.717985,1.520398 -0.846119,1.520398 -0.05319,0 -0.08528,0.0572 -0.07129,0.127119 0.01398,0.06992 -0.03013,0.116227 -0.09803,0.102915 -0.0679,-0.01331 -0.10036,0.03599 -0.07213,0.109564 0.05826,0.15182 -1.660402,2.027068 -1.786422,1.949182 -0.04478,-0.02768 -0.105521,0.01247 -0.134969,0.08921 -0.05848,0.152394 -1.079708,0.846559 -1.164118,0.791292 -0.02865,-0.01876 -0.0801,0.0094 -0.114316,0.06261 -0.08912,0.138547 -0.926316,0.550402 -0.92818,0.456616 -8.14e-4,-0.04309 -0.03717,-0.02229 -0.08069,0.04621 -0.04352,0.0685 -0.191549,0.145187 -0.328952,0.17041 -0.137402,0.02522 -0.261263,0.05498 -0.275246,0.06613 -0.01398,0.01115 -0.05975,0.02982 -0.101695,0.0415 -0.04195,0.01168 -0.208465,0.07588 -0.370036,0.142676 -0.161571,0.06679 -0.317529,0.09768 -0.346576,0.06863 -0.02905,-0.02904 -0.10805,-0.007 -0.175567,0.04907 -0.06752,0.05603 -0.369184,0.131854 -0.670374,0.168488 -0.78098,0.09499 -2.677716,0.157091 -2.744941,0.08987 z m 2.807494,-2.221123 c 0.111864,-0.02466 0.272034,-0.0706 0.355932,-0.102082 0.330892,-0.124171 0.869165,-0.274643 0.954732,-0.266891 0.04968,0.0045 0.118322,-0.03005 0.152543,-0.07678 0.08576,-0.117107 0.926624,-0.569236 0.926624,-0.498243 0,0.03154 0.08569,-0.02273 0.190417,-0.120612 0.10473,-0.09788 0.44829,-0.383899 0.763467,-0.635593 0.315177,-0.251695 0.812372,-0.755085 1.104878,-1.118644 0.292506,-0.36356 0.570651,-0.689015 0.618101,-0.723234 0.04745,-0.03422 0.07092,-0.08994 0.05216,-0.123822 -0.01876,-0.03388 0.03453,-0.146417 0.118433,-0.250077 0.0839,-0.103661 0.167652,-0.25344 0.18612,-0.332843 0.01847,-0.0794 0.08711,-0.178425 0.152543,-0.220047 0.06543,-0.04162 0.08194,-0.07638 0.03669,-0.07723 -0.04525,-8.14e-4 -0.04657,-0.05876 -0.0029,-0.128676 0.04363,-0.06991 0.09086,-0.200964 0.104943,-0.291221 0.01409,-0.09026 0.07977,-0.296189 0.145962,-0.457628 0.06619,-0.161437 0.137467,-0.40793 0.158388,-0.547761 0.02092,-0.13983 0.0749,-0.368644 0.119943,-0.508474 0.143994,-0.446974 0.0542,-2.542758 -0.137256,-3.20339 -0.09726,-0.3355935 -0.185383,-0.6559325 -0.195839,-0.7118647 -0.01046,-0.055932 -0.07562,-0.204661 -0.144819,-0.3305085 -0.06919,-0.1258474 -0.10074,-0.2288135 -0.0701,-0.2288135 0.03064,0 -0.05668,-0.1780234 -0.194035,-0.3956075 -0.137354,-0.2175841 -0.221827,-0.4235163 -0.187716,-0.4576271 0.03411,-0.034111 0.0059,-0.06202 -0.06263,-0.06202 -0.06856,0 -0.09933,-0.040967 -0.06838,-0.091039 0.03095,-0.050071 -0.01867,-0.1197926 -0.110248,-0.1549362 -0.09158,-0.035144 -0.137374,-0.093037 -0.101758,-0.1286532 0.03561,-0.035616 -0.02648,-0.1286589 -0.137987,-0.2067625 -0.111509,-0.078104 -0.202743,-0.1881289 -0.202743,-0.2445005 0,-0.056372 -0.137411,-0.2181175 -0.305358,-0.3594353 -0.167947,-0.1413178 -0.275283,-0.3056036 -0.238524,-0.3650795 0.03676,-0.059476 0.02409,-0.081721 -0.02815,-0.049434 -0.05224,0.032287 -0.332251,-0.1605855 -0.622242,-0.4286059 -0.289991,-0.2680205 -0.550699,-0.4638675 -0.579351,-0.4352155 -0.02865,0.028652 -0.08085,-0.022837 -0.115992,-0.1144192 -0.03514,-0.091583 -0.104865,-0.1411944 -0.154935,-0.1102486 -0.05007,0.030946 -0.09104,0.0078 -0.09104,-0.051432 0,-0.059233 -0.03432,-0.098446 -0.07627,-0.08714 C 15.988229,5.0962698 15.770856,5.0096509 15.547127,4.892477 15.323399,4.7753031 15.094585,4.6690445 15.038653,4.656347 14.982721,4.6436494 14.822551,4.5895849 14.682721,4.5362037 13.53472,4.097947 12.05391,3.9545405 10.785677,4.1588015 9.8016115,4.3172946 9.9240285,4.289001 9.5471275,4.4450619 9.3793309,4.5145403 9.161958,4.5776475 9.0640766,4.5853002 c -0.097881,0.00765 -0.1779661,0.057565 -0.1779661,0.1109168 0,0.053352 -0.029156,0.067847 -0.064792,0.032211 -0.035636,-0.035636 -0.1958052,0.028498 -0.3559323,0.142518 -0.160127,0.1140206 -0.2911401,0.1817605 -0.2911401,0.1505332 0,-0.031227 -0.093009,0.02286 -0.2066868,0.1201938 C 7.8538816,5.2390068 7.7509155,5.2993332 7.7387458,5.2757316 7.726576,5.2521299 7.5576914,5.3779774 7.3634467,5.5553926 7.1692019,5.7328078 6.9812479,5.8779657 6.9457711,5.8779657 c -0.066979,0 -1.0761232,0.9839858 -1.1304839,1.1023003 -0.076308,0.166083 -0.8527027,1.2939881 -0.9290998,1.3497475 -0.046885,0.03422 -0.078452,0.092502 -0.07015,0.1295168 0.01298,0.057867 -0.2809829,0.9157232 -0.4744405,1.3845371 -0.034621,0.083898 -0.071841,0.1983046 -0.08271,0.2542376 -0.01087,0.05593 -0.032635,0.124576 -0.048366,0.152542 -0.1055039,0.187554 -0.1553617,2.62587 -0.063422,3.101695 0.1141845,0.590953 0.1456859,0.714464 0.2528884,0.991525 0.059515,0.153814 0.080856,0.279661 0.047426,0.279661 -0.03343,0 -0.00981,0.06141 0.052482,0.136476 0.062296,0.07506 0.083153,0.166586 0.04635,0.20339 -0.036803,0.0368 -0.010824,0.06691 0.057732,0.06691 0.068555,0 0.096363,0.04576 0.061795,0.101695 -0.034568,0.05593 -0.011687,0.101695 0.050847,0.101695 0.062534,0 0.085416,0.04576 0.050847,0.101695 -0.034568,0.05593 -0.019939,0.101695 0.032508,0.101695 0.085876,0 0.3559547,0.52499 0.3365672,0.654234 -0.00436,0.02903 0.1044552,0.174041 0.2418011,0.32224 0.1373459,0.148199 0.2294928,0.302181 0.2047709,0.342181 -0.024722,0.04 0.091815,0.173843 0.2589705,0.297426 0.1683545,0.12447 0.2729685,0.274777 0.2345314,0.336971 -0.038616,0.06248 -0.023348,0.08382 0.034428,0.04811 0.1318802,-0.08151 0.4626081,0.274729 0.3600343,0.387803 -0.042071,0.04638 -0.022954,0.05367 0.042482,0.0162 0.065437,-0.03747 0.2027247,0.03771 0.3050848,0.167067 0.1023601,0.129354 0.266194,0.265643 0.3640754,0.302863 0.097881,0.03722 0.1779661,0.114872 0.1779661,0.17256 0,0.05769 0.068644,0.104886 0.1525424,0.104886 0.083898,0 0.1525423,0.0408 0.1525423,0.09067 0,0.04987 0.1144068,0.119385 0.2542373,0.15448 0.1398305,0.0351 0.2542373,0.111402 0.2542373,0.169569 0,0.05817 0.045763,0.07748 0.1016949,0.04291 0.055932,-0.03457 0.1016949,-0.01169 0.1016949,0.05085 0,0.06253 0.045763,0.08542 0.101695,0.05085 0.055932,-0.03457 0.1016949,-0.01439 0.1016949,0.04485 0,0.05923 0.034322,0.100189 0.076271,0.09101 0.1490655,-0.0326 0.6355932,0.141851 0.6355932,0.227904 0,0.04811 0.068644,0.06114 0.1525424,0.02894 0.083898,-0.0322 0.1525423,-0.0093 0.1525423,0.05085 0,0.06016 0.064015,0.08482 0.1422559,0.05479 0.078241,-0.03002 0.1729283,-0.005 0.2104168,0.0557 0.037489,0.06066 0.1103994,0.08418 0.1620234,0.05228 0.05162,-0.03191 0.17431,-0.01238 0.272634,0.0434 0.169895,0.09637 2.879519,0.08228 3.331314,-0.01732 z"
     id="path3498"
     inkscape:connector-curvature="0" />
  <path
     style="fill:#ff6600"
     d="m 6.880592,17.363936 c 0.0082,-0.108809 0.050927,-0.197835 0.094956,-0.197835 0.04403,0 0.068613,-0.0572 0.05463,-0.127118 -0.013983,-0.06992 0.035181,-0.114544 0.1092539,-0.09918 0.074073,0.01537 0.1044502,-0.02096 0.067506,-0.08074 -0.093423,-0.151161 0.2385932,-0.630635 0.3773193,-0.544897 0.071883,0.04443 0.084051,0.02306 0.033472,-0.05878 -0.052537,-0.08501 0.1514696,-0.34952 0.6019828,-0.780525 0.6977463,-0.667532 1.4930895,-1.150905 1.8109516,-1.100611 0.09815,0.01553 0.150349,-0.01723 0.116002,-0.07281 -0.03463,-0.05604 0.02177,-0.08808 0.126634,-0.07193 0.103996,0.01601 0.280608,-0.01972 0.392473,-0.07941 0.308537,-0.164621 1.355177,-0.239377 1.98305,-0.14164 1.046433,0.162892 1.757916,0.384208 1.673621,0.5206 -0.03139,0.05078 0.02146,0.0622 0.117441,0.02537 0.127768,-0.04903 0.152211,-0.03089 0.09126,0.06772 -0.05585,0.09037 -0.044,0.110433 0.03602,0.06098 0.129776,-0.08021 0.827417,0.305416 0.827417,0.457356 0,0.05137 0.06458,0.0934 0.143502,0.0934 0.07893,0 0.262218,0.148729 0.407315,0.330508 0.145097,0.18178 0.323962,0.399153 0.397477,0.483051 0.343844,0.392407 0.583218,0.82313 0.517001,0.930273 -0.04364,0.07062 -0.02873,0.09075 0.0371,0.05007 0.126151,-0.07797 0.271747,0.287784 0.176139,0.442481 -0.03488,0.05643 -0.400867,0.102605 -0.813309,0.102605 l -0.749896,0 -0.670851,-0.661017 c -0.368969,-0.363559 -0.709084,-0.661017 -0.755812,-0.661017 -0.04673,0 -0.194098,-0.08486 -0.327489,-0.18858 -0.443542,-0.344881 -1.821828,-0.550331 -2.583622,-0.385119 -0.332075,0.07202 -1.4144521,0.613346 -1.5029421,0.751665 -0.044728,0.06991 -0.1476946,0.127119 -0.2288136,0.127119 -0.081119,0 -0.1477008,0.03432 -0.1479597,0.07627 -2.542e-4,0.04195 -0.137547,0.222518 -0.3050847,0.401264 -0.1675378,0.178747 -0.3046142,0.371388 -0.3046142,0.428093 0,0.06208 -0.3614373,0.102524 -0.9085155,0.101654 -0.8368716,-0.0013 -0.9073404,-0.01704 -0.8936132,-0.199278 z"
     id="path3500"
     inkscape:connector-curvature="0" />
  <path
     style="fill:#ff6600"
     d="m 14.658514,10.71207 c -0.171564,-0.193786 -0.345915,-0.331337 -0.387445,-0.305669 -0.09792,0.06052 -0.216663,-0.247311 -0.141999,-0.368121 0.03145,-0.050885 0.02016,-0.092518 -0.02509,-0.092518 -0.103544,0 -0.09885,-0.8882274 0.0063,-1.1963919 0.04323,-0.1266597 0.11793,-0.2059788 0.166009,-0.1762648 0.04808,0.029714 0.160071,-0.049706 0.248874,-0.1764894 0.0888,-0.1267832 0.183459,-0.2190742 0.210348,-0.2050912 0.108341,0.056341 0.261259,0.020533 0.217144,-0.050847 -0.02593,-0.041949 0.218698,-0.076271 0.543609,-0.076271 0.324911,0 0.569535,0.034322 0.543609,0.076271 -0.02593,0.041949 0.0013,0.076271 0.06056,0.076271 0.05923,0 0.128323,0.00241 0.153532,0.00536 0.145315,0.017008 0.670839,0.6164431 0.616921,0.7036846 -0.03552,0.05748 -0.02757,0.1045098 0.01768,0.1045098 0.103544,0 0.09885,0.8882274 -0.0063,1.1963919 -0.04323,0.12666 -0.118751,0.205472 -0.167832,0.175138 -0.04908,-0.03033 -0.192598,0.08465 -0.318927,0.255519 -0.126329,0.17087 -0.28881,0.287985 -0.361068,0.260257 -0.07226,-0.02773 -0.131377,-0.0061 -0.131377,0.04809 0,0.05418 -0.209838,0.0985 -0.466305,0.0985 -0.404195,0 -0.507855,-0.04693 -0.778241,-0.352336 z"
     id="path3502"
     inkscape:connector-curvature="0" />
  <path
     style="fill:#ff6600"
     d="m 7.9708563,10.952861 c 0,-0.05052 -0.057203,-0.0804 -0.1271187,-0.06642 -0.069915,0.01398 -0.1145441,-0.03518 -0.099175,-0.109254 0.015369,-0.07407 -0.018751,-0.105818 -0.075822,-0.07055 -0.1210338,0.0748 -0.6336723,-0.441989 -0.5587266,-0.563254 0.027831,-0.04503 0.012781,-0.105248 -0.033443,-0.133816 -0.046224,-0.028568 -0.095056,-0.2646799 -0.1085153,-0.5246931 -0.017984,-0.3474318 0.00802,-0.4526706 0.098098,-0.3969994 0.074073,0.04578 0.096103,0.032929 0.055679,-0.032478 -0.094838,-0.1534517 0.03538,-0.4437252 0.1635284,-0.3645253 0.06373,0.039387 0.076399,0.016865 0.031436,-0.055886 -0.088217,-0.1427382 0.1266812,-0.441724 0.2588021,-0.3600687 0.049595,0.030651 0.090172,0.00526 0.090172,-0.056425 0,-0.061685 0.057203,-0.1005473 0.1271187,-0.086361 0.069915,0.014187 0.2343471,-0.033461 0.3654041,-0.1058841 0.1473205,-0.08141 0.3414296,-0.1028953 0.5084746,-0.05628 0.148604,0.041469 0.3297799,0.087424 0.4026131,0.1021224 0.2705858,0.054607 0.6310576,0.3598376 0.7915971,0.6702868 0.1207014,0.2334108 0.1516839,0.4845606 0.1143816,0.9271941 -0.041986,0.4982053 -0.1047253,0.6606373 -0.3498567,0.9057683 -0.164283,0.164283 -0.3864126,0.315147 -0.4936212,0.335254 -0.1072087,0.02011 -0.1949248,0.04612 -0.1949248,0.05781 0,0.01169 -0.2173729,0.03364 -0.4830509,0.04878 -0.2656779,0.01514 -0.4830508,-0.0138 -0.4830508,-0.06431 z"
     id="path3504"
     inkscape:connector-curvature="0" />
</svg>
