<?xml version="1.0" encoding="UTF-8" standalone="no"?>
<svg
   xmlns:dc="http://purl.org/dc/elements/1.1/"
   xmlns:cc="http://creativecommons.org/ns#"
   xmlns:rdf="http://www.w3.org/1999/02/22-rdf-syntax-ns#"
   xmlns:svg="http://www.w3.org/2000/svg"
   xmlns="http://www.w3.org/2000/svg"
   xmlns:sodipodi="http://sodipodi.sourceforge.net/DTD/sodipodi-0.dtd"
   xmlns:inkscape="http://www.inkscape.org/namespaces/inkscape"
   fill="#000000"
   height="24"
   viewBox="0 0 24 24"
   width="24"
   id="svg3595"
   version="1.1"
   inkscape:version="0.91 r13725"
   sodipodi:docname="dead.svg">
  <metadata
     id="metadata3605">
    <rdf:RDF>
      <cc:Work
         rdf:about="">
        <dc:format>image/svg+xml</dc:format>
        <dc:type
           rdf:resource="http://purl.org/dc/dcmitype/StillImage" />
        <dc:title></dc:title>
      </cc:Work>
    </rdf:RDF>
  </metadata>
  <defs
     id="defs3603" />
  <sodipodi:namedview
     pagecolor="#ffffff"
     bordercolor="#666666"
     borderopacity="1"
     objecttolerance="10"
     gridtolerance="10"
     guidetolerance="10"
     inkscape:pageopacity="0"
     inkscape:pageshadow="2"
     inkscape:window-width="1855"
     inkscape:window-height="1056"
     id="namedview3601"
     showgrid="false"
     inkscape:zoom="9.8333333"
     inkscape:cx="12"
     inkscape:cy="12"
     inkscape:window-x="65"
     inkscape:window-y="24"
     inkscape:window-maximized="1"
     inkscape:current-layer="svg3595" />
  <path
     d="M11.99 2C6.47 2 2 6.47 2 12s4.47 10 9.99 10S22 17.53 22 12 17.52 2 11.99 2zM12 20c-4.42 0-8-3.58-8-8s3.58-8 8-8 8 3.58 8 8-3.58 8-8 8zm4.18-12.24l-1.06 1.06-1.06-1.06L13 8.82l1.06 1.06L13 10.94 14.06 12l1.06-1.06L16.18 12l1.06-1.06-1.06-1.06 1.06-1.06zM7.82 12l1.06-1.06L9.94 12 11 10.94 9.94 9.88 11 8.82 9.94 7.76 8.88 8.82 7.82 7.76 6.76 8.82l1.06 1.06-1.06 1.06zM12 14c-2.33 0-4.31 1.46-5.11 3.5h10.22c-.8-2.04-2.78-3.5-5.11-3.5z"
     id="path3597" />
  <path
     d="M0 0h24v24H0z"
     fill="none"
     id="path3599" />
  <path
     style="fill:#ff0000"
     d="m 6.9975645,17.394915 c 0.00213,-0.170536 0.6132512,-1.1234 1.0045329,-1.566284 0.8393451,-0.950038 2.2072796,-1.62578 3.5707836,-1.763922 0.843234,-0.08543 1.954214,0.139016 2.847458,0.575261 0.794974,0.388252 1.953147,1.509727 2.372492,2.297318 l 0.284269,0.533898 -5.040245,0 c -2.7721345,0 -5.0398154,-0.03432 -5.0392905,-0.07627 z"
     id="path3607"
     inkscape:connector-curvature="0" />
  <path
     style="fill:#ff0000"
     d="m 6.8949153,17.385258 c 0,-0.286795 0.7605729,-1.400161 1.3284158,-1.944603 1.2696899,-1.217367 3.3143159,-1.752713 5.0783639,-1.329671 1.452125,0.348238 2.913847,1.471353 3.546767,2.725162 0.174701,0.346082 0.31764,0.653427 0.31764,0.682988 0,0.02956 -2.311017,0.05375 -5.135594,0.05375 -4.9239445,0 -5.1355927,-0.0077 -5.1355927,-0.187623 z"
     id="path3609"
     inkscape:connector-curvature="0" />
  <path
     style="fill:#ff0000"
     d="M 10.284827,21.801549 C 6.1258135,21.010568 3.0042532,17.911304 2.2032342,13.777677 2.0436326,12.95406 2.0445335,10.971327 2.2048597,10.2 2.4861969,8.846491 3.0725121,7.4217912 3.7742765,6.3864407 4.2288739,5.7157488 5.5323313,4.3959072 6.2338983,3.8959019 8.2012076,2.4938048 10.716073,1.8370002 13.05072,2.1155604 c 4.608006,0.549808 8.132918,3.9677872 8.798279,8.5313736 0.451167,3.094468 -0.736474,6.425279 -3.067828,8.603913 -1.212625,1.133189 -2.798591,2.00248 -4.371663,2.396171 -1.094926,0.274026 -3.101157,0.349189 -4.124681,0.154531 z m 3.57619,-1.985459 c 3.028886,-0.729872 5.326146,-3.082405 6.002116,-6.146531 0.239332,-1.08487 0.166731,-2.960551 -0.153975,-3.9780336 C 19.278047,8.3237675 18.734588,7.4394099 17.677957,6.3861981 17.144742,5.8547088 16.441472,5.2633041 16.115134,5.0719656 14.787022,4.2932664 12.945423,3.8646521 11.430954,3.9817685 6.0984632,4.3941388 2.6589444,9.6859695 4.4442603,14.731063 c 0.4196391,1.18585 0.8742811,1.875771 1.9419378,2.946894 1.0029192,1.006175 1.9083453,1.579583 3.1095835,1.969302 1.2855374,0.417069 3.0516154,0.485375 4.3652354,0.168831 z"
     id="path3611"
     inkscape:connector-curvature="0" />
  <path
     style="fill:#ff0000"
     d="M 10.29657,21.905662 C 9.1665004,21.689645 8.4321824,21.451592 7.5671231,21.020821 2.1910268,18.343708 0.32699369,11.719365 3.5091086,6.5995739 4.1130868,5.6278172 5.5011349,4.2161959 6.459313,3.5992664 9.4823651,1.6528537 13.193539,1.4201012 16.40339,2.9756069 c 2.707919,1.312268 4.717849,3.8474999 5.404999,6.8176134 0.272561,1.1781047 0.249649,3.5647527 -0.04459,4.6449587 -1.005607,3.691772 -3.673032,6.356629 -7.32562,7.318568 -1.009763,0.265931 -3.130544,0.342186 -4.141609,0.148915 z m 3.573604,-2.199515 C 19.462527,18.27596 21.750676,11.755093 18.271537,7.1629514 17.282323,5.8572817 15.73051,4.8150155 14.058652,4.3333921 13.016324,4.0331215 11.067518,4.0121393 10.053341,4.2902683 7.7192369,4.9303748 5.7363129,6.6052651 4.7579077,8.7630917 4.2537474,9.8749933 4.1094848,10.588388 4.1074536,11.979661 c -0.00149,1.018978 0.043827,1.431458 0.2283963,2.078991 0.7972366,2.796985 3.0128968,4.96343 5.7682311,5.640105 1.122556,0.275685 2.704855,0.27879 3.766093,0.0074 l 0,-3e-6 z"
     id="path3613"
     inkscape:connector-curvature="0" />
  <path
     style="fill:#ff0000"
     d="M 13.503579,11.418805 13.052947,10.959644 13.583113,10.429478 14.11328,9.8993113 13.584017,9.3633919 13.054755,8.8274724 13.556066,8.3185081 14.057377,7.8095437 14.59479,8.340281 l 0.537413,0.5307373 0.536161,-0.5295004 0.53616,-0.5295003 0.479865,0.4798646 0.479865,0.4798647 -0.529501,0.5361605 -0.5295,0.5361604 0.530737,0.5374132 0.530738,0.537413 -0.508965,0.501311 -0.508964,0.501311 -0.537236,-0.530562 -0.537236,-0.530563 -0.501137,0.508788 c -0.275626,0.279833 -0.527652,0.508787 -0.560058,0.508787 -0.03241,0 -0.261705,-0.206622 -0.509553,-0.459161 z"
     id="path3615"
     inkscape:connector-curvature="0" />
  <path
     style="fill:#ff0000"
     d="M 13.527171,11.544398 C 13.235362,11.248919 12.99661,10.964412 12.99661,10.91216 c 0,-0.05225 0.215653,-0.313949 0.479228,-0.581548 L 13.955066,9.8440678 13.454063,9.3354163 12.95306,8.8267648 l 0.552336,-0.5592831 0.552336,-0.5592832 0.51401,0.5076252 0.51401,0.5076253 0.531753,-0.5317529 0.531753,-0.5317529 0.582396,0.582396 0.582396,0.5823961 -0.530614,0.537288 -0.530614,0.537288 0.530562,0.5305617 0.530561,0.530562 -0.553635,0.560598 -0.553635,0.560599 -0.537236,-0.530562 -0.537236,-0.530563 -0.537236,0.530563 -0.537235,0.530562 -0.530561,-0.537234 z"
     id="path3617"
     inkscape:connector-curvature="0" />
  <path
     style="fill:#ff0000"
     d="m 7.3014817,11.420122 -0.4493402,-0.457845 0.479014,-0.486326 c 0.2634577,-0.26748 0.479014,-0.528946 0.479014,-0.5810357 0,-0.05209 -0.2162074,-0.3142168 -0.480461,-0.5825045 L 6.8492476,8.824615 7.3284567,8.3454059 7.8076659,7.8661968 8.2954617,8.3466577 c 0.2682877,0.2642535 0.5304146,0.4804609 0.5825044,0.4804609 0.05209,0 0.3142167,-0.2162074 0.5825044,-0.4804609 L 9.9482663,7.8661968 10.427475,8.3454059 10.906685,8.824615 10.426224,9.3124108 C 10.16197,9.5806985 9.9457627,9.8428255 9.9457627,9.8949153 c 0,0.05209 0.2162073,0.3142167 0.4804613,0.5825047 l 0.480461,0.487795 -0.479387,0.479387 L 9.9479119,11.923988 9.4094243,11.39219 8.8709367,10.860391 8.3697998,11.369179 c -0.2756254,0.279833 -0.5276512,0.508787 -0.5600574,0.508787 -0.032406,0 -0.2611235,-0.20603 -0.5082607,-0.457844 z"
     id="path3619"
     inkscape:connector-curvature="0" />
  <path
     style="fill:#ff0000"
     d="M 7.1988754,11.520895 6.6453767,10.960435 7.1759383,10.429873 7.7064999,9.8993113 7.1758859,9.3620233 6.6452721,8.8247353 7.2265291,8.2434783 7.8077862,7.6622212 8.3450742,8.1928351 8.8823622,8.723449 9.4141151,8.1916961 9.945868,7.6599432 l 0.582396,0.582396 0.582396,0.5823961 -0.530614,0.537288 -0.530614,0.537288 0.531753,0.5317527 0.531753,0.531753 -0.582396,0.582396 -0.582396,0.582396 -0.5386046,-0.531914 -0.5386047,-0.531914 -0.5011369,0.508787 c -0.2756254,0.279834 -0.527302,0.508788 -0.5592813,0.508788 -0.031979,0 -0.3072187,-0.252207 -0.6116431,-0.560461 z"
     id="path3621"
     inkscape:connector-curvature="0" />
</svg>
