<?xml version="1.0" encoding="UTF-8" standalone="no"?>
<svg
   xmlns:dc="http://purl.org/dc/elements/1.1/"
   xmlns:cc="http://creativecommons.org/ns#"
   xmlns:rdf="http://www.w3.org/1999/02/22-rdf-syntax-ns#"
   xmlns:svg="http://www.w3.org/2000/svg"
   xmlns="http://www.w3.org/2000/svg"
   xmlns:sodipodi="http://sodipodi.sourceforge.net/DTD/sodipodi-0.dtd"
   xmlns:inkscape="http://www.inkscape.org/namespaces/inkscape"
   fill="#000000"
   height="24"
   viewBox="0 0 24 24"
   width="24"
   id="svg3488"
   version="1.1"
   inkscape:version="0.91 r13725"
   sodipodi:docname="debatable.svg">
  <metadata
     id="metadata3502">
    <rdf:RDF>
      <cc:Work
         rdf:about="">
        <dc:format>image/svg+xml</dc:format>
        <dc:type
           rdf:resource="http://purl.org/dc/dcmitype/StillImage" />
        <dc:title></dc:title>
      </cc:Work>
    </rdf:RDF>
  </metadata>
  <defs
     id="defs3500" />
  <sodipodi:namedview
     pagecolor="#ffffff"
     bordercolor="#666666"
     borderopacity="1"
     objecttolerance="10"
     gridtolerance="10"
     guidetolerance="10"
     inkscape:pageopacity="0"
     inkscape:pageshadow="2"
     inkscape:window-width="1791"
     inkscape:window-height="802"
     id="namedview3498"
     showgrid="false"
     inkscape:zoom="14.291667"
     inkscape:cx="12"
     inkscape:cy="12"
     inkscape:window-x="75"
     inkscape:window-y="34"
     inkscape:window-maximized="0"
     inkscape:current-layer="svg3488" />
  <path
     d="M0 0h24v24H0z"
     fill="none"
     id="path3490" />
  <circle
     cx="15.5"
     cy="9.5"
     r="1.5"
     id="circle3492" />
  <circle
     cx="8.5"
     cy="9.5"
     r="1.5"
     id="circle3494" />
  <path
     d="M11.99 2C6.47 2 2 6.48 2 12s4.47 10 9.99 10C17.52 22 22 17.52 22 12S17.52 2 11.99 2zM12 20c-4.42 0-8-3.58-8-8s3.58-8 8-8 8 3.58 8 8-3.58 8-8 8zm0-6c-2.33 0-4.32 1.45-5.12 3.5h1.67c.69-1.19 1.97-2 3.45-2s2.75.81 3.45 2h1.67c-.8-2.05-2.79-3.5-5.12-3.5z"
     id="path3496" />
  <path
     style="fill:#ffe680"
     d="M 10.390671,21.831633 C 8.2830134,21.470651 6.4695542,20.534678 4.9674382,19.032562 3.5760664,17.64119 2.6443823,15.91688 2.226177,13.959184 c -0.1804492,-0.844716 -0.1804492,-3.073652 0,-3.918368 C 2.9376443,6.7103076 5.2316706,3.9655301 8.3285224,2.7394269 9.4801301,2.2834831 10.277753,2.1245059 11.618987,2.083592 c 1.841641,-0.056179 3.112528,0.1967125 4.621406,0.919604 2.16367,1.0365977 3.719371,2.5918528 4.755151,4.7537917 1.036014,2.1624243 1.235562,4.7116913 0.554116,7.0789183 -0.210966,0.73286 -0.799739,1.996234 -1.226408,2.631596 -1.577574,2.349198 -4.006692,3.920882 -6.746821,4.365317 -0.767813,0.124535 -2.455382,0.123907 -3.18576,-0.0012 l 0,4e-6 z m 2.520785,-1.858649 c 1.859108,-0.230972 3.464973,-1.007742 4.759379,-2.302149 3.138613,-3.138613 3.138613,-8.2030568 0,-11.3416705 -3.138613,-3.1386132 -8.2030568,-3.1386132 -11.3416705,0 C 3.2749654,9.383364 3.1832561,14.270318 6.120029,17.473455 c 1.6839591,1.836694 4.319408,2.806649 6.791427,2.499529 z"
     id="path3504"
     inkscape:connector-curvature="0" />
  <path
     style="fill:#ffe680"
     d="m 6.9620991,17.420745 c 0,-0.02034 0.091159,-0.217565 0.2025746,-0.438279 0.6523398,-1.292277 1.949299,-2.339595 3.4149753,-2.757653 0.773903,-0.220742 2.066799,-0.220742 2.840702,0 1.465676,0.418058 2.762636,1.465376 3.414975,2.757653 0.111416,0.220714 0.202575,0.41794 0.202575,0.438279 0,0.02034 -0.355311,0.03698 -0.789578,0.03698 l -0.789579,0 -0.121629,-0.205901 c -0.393843,-0.666724 -1.458748,-1.420398 -2.326197,-1.64634 -0.522376,-0.136062 -1.494357,-0.13739 -2.011278,-0.0028 -0.855951,0.222947 -1.7538426,0.82862 -2.2182989,1.496354 l -0.244898,0.352082 -0.787172,0.0033 c -0.4329446,0.0018 -0.787172,-0.01336 -0.787172,-0.0337 z"
     id="path3506"
     inkscape:connector-curvature="0" />
  <path
     style="fill:#ffe680"
     d="M 7.9067055,10.817782 C 6.4739784,10.154451 6.9293935,8.0622803 8.5088311,8.0516254 c 1.0227472,-0.0069 1.7541189,1.1067388 1.3293592,2.0241766 -0.343517,0.741961 -1.2114114,1.075363 -1.9314848,0.74198 z"
     id="path3508"
     inkscape:connector-curvature="0" />
  <path
     style="fill:#deaa87"
     d="m 14.90319,10.819943 c -1.262931,-0.573737 -1.086958,-2.3795172 0.267423,-2.7442142 0.696786,-0.1876249 1.475851,0.2561542 1.717683,0.9784442 0.392495,1.172282 -0.852936,2.280104 -1.985106,1.76577 z"
     id="path3510"
     inkscape:connector-curvature="0" />
  <path
     style="fill:#deaa87"
     d="m 10.864028,21.966069 c -0.01779,-0.0178 -0.155197,-0.04614 -0.305334,-0.06299 -0.314095,-0.03524 -0.549101,-0.07695 -0.7977611,-0.141595 -0.09621,-0.02501 -0.2379008,-0.05496 -0.3148688,-0.06656 -0.076968,-0.0116 -0.1399417,-0.02745 -0.1399417,-0.03522 0,-0.0078 -0.066553,-0.02668 -0.1478959,-0.04202 -0.081342,-0.01534 -0.2387769,-0.06546 -0.3498541,-0.111387 -0.1110771,-0.04592 -0.2177018,-0.08662 -0.2369438,-0.09043 -0.019242,-0.0038 -0.074344,-0.03193 -0.122449,-0.06247 -0.048105,-0.03055 -0.087464,-0.03683 -0.087464,-0.01396 0,0.02287 -0.070845,0.0023 -0.1574344,-0.04572 -0.086589,-0.04801 -0.1810495,-0.08061 -0.2099125,-0.07243 -0.028863,0.0082 -0.052478,-0.01662 -0.052478,-0.0551 0,-0.03848 -0.024256,-0.0621 -0.053902,-0.05248 -0.086397,0.02804 -0.6458063,-0.242337 -0.6458063,-0.312133 0,-0.03491 -0.031487,-0.04401 -0.069971,-0.02023 -0.038484,0.02379 -0.069971,0.01331 -0.069971,-0.02327 0,-0.03658 -0.078717,-0.08627 -0.1749271,-0.110419 -0.09621,-0.02415 -0.1749271,-0.07479 -0.1749271,-0.112542 0,-0.03775 -0.04723,-0.06864 -0.1049563,-0.06864 -0.057726,0 -0.1049562,-0.03335 -0.1049562,-0.0741 0,-0.04076 -0.031709,-0.0545 -0.070465,-0.03055 -0.038756,0.02395 -0.089355,-0.0057 -0.1124424,-0.06584 -0.023088,-0.06017 -0.082509,-0.109391 -0.1320477,-0.109391 -0.049539,0 -0.1911908,-0.09446 -0.3147825,-0.209913 -0.1235916,-0.115452 -0.2443083,-0.209912 -0.2682592,-0.209912 -0.023951,0 -0.1612676,-0.118076 -0.3051481,-0.262391 C 5.0096923,19.173942 4.8260581,18.990308 4.4956268,18.660871 4.351312,18.51699 4.2332362,18.379674 4.2332362,18.355723 c 0,-0.02395 -0.094461,-0.144668 -0.2099126,-0.268259 -0.1154519,-0.123592 -0.2099125,-0.265245 -0.2099125,-0.314783 0,-0.04954 -0.049226,-0.10896 -0.1093912,-0.132048 -0.060165,-0.02309 -0.089794,-0.07369 -0.065841,-0.112442 0.023952,-0.03876 0.010205,-0.07046 -0.03055,-0.07046 -0.040755,0 -0.0741,-0.04723 -0.0741,-0.104956 0,-0.05773 -0.030887,-0.104957 -0.068638,-0.104957 -0.037751,0 -0.088395,-0.07872 -0.1125416,-0.174927 -0.024147,-0.09621 -0.073836,-0.174927 -0.1104189,-0.174927 -0.036583,0 -0.047055,-0.03149 -0.023271,-0.06997 0.023784,-0.03848 0.014681,-0.06997 -0.020229,-0.06997 -0.069796,0 -0.3401704,-0.559409 -0.3121323,-0.645806 0.00962,-0.02965 -0.013994,-0.0539 -0.052478,-0.0539 -0.038484,0 -0.063281,-0.02362 -0.055105,-0.05248 0.00818,-0.02886 -0.024419,-0.123324 -0.072433,-0.209913 -0.048014,-0.08659 -0.066591,-0.157434 -0.041283,-0.157434 0.025308,0 0.00682,-0.04723 -0.041091,-0.104956 -0.047908,-0.05773 -0.063652,-0.104957 -0.034985,-0.104957 0.028666,0 0.012923,-0.04723 -0.034985,-0.104956 -0.047908,-0.05773 -0.063652,-0.104956 -0.034985,-0.104956 0.028666,0 0.012923,-0.04723 -0.034985,-0.104956 -0.047908,-0.05773 -0.063652,-0.104957 -0.034985,-0.104957 0.028666,0 0.012923,-0.04723 -0.034985,-0.104956 -0.047908,-0.05773 -0.063652,-0.104956 -0.034985,-0.104956 0.028666,0 0.014068,-0.04585 -0.032442,-0.101892 -0.046509,-0.05604 -0.065594,-0.132581 -0.042412,-0.170092 0.023183,-0.03751 0.012154,-0.08674 -0.024509,-0.109399 -0.036663,-0.02266 -0.067327,-0.09568 -0.068143,-0.162269 -8.159e-4,-0.06659 -0.02004,-0.215532 -0.042719,-0.330984 C 2.0604277,13.372611 2.0401295,13.07181 2.0389375,12 c -0.00119,-1.067787 0.018279,-1.356264 0.1298461,-1.924198 0.02268,-0.1154521 0.041904,-0.2643949 0.042719,-0.330984 8.158e-4,-0.066589 0.03148,-0.1396101 0.068143,-0.1622694 0.036663,-0.022659 0.047692,-0.071888 0.024509,-0.1093987 -0.023183,-0.037511 -0.0041,-0.1140525 0.042412,-0.1700922 0.046509,-0.05604 0.061108,-0.1018915 0.032442,-0.1018915 -0.028666,0 -0.012923,-0.04723 0.034985,-0.1049563 0.047908,-0.057726 0.063652,-0.1049563 0.034985,-0.1049563 -0.028666,0 -0.012923,-0.04723 0.034985,-0.1049562 0.047908,-0.057726 0.063652,-0.1049563 0.034985,-0.1049563 -0.028666,0 -0.012923,-0.04723 0.034985,-0.1049563 0.047908,-0.057726 0.063652,-0.1049562 0.034985,-0.1049562 -0.028666,0 -0.012923,-0.04723 0.034985,-0.1049563 0.047908,-0.057726 0.066399,-0.1049563 0.041091,-0.1049563 -0.025308,0 -0.00673,-0.070845 0.041283,-0.1574344 0.048014,-0.086589 0.080609,-0.1810495 0.072433,-0.2099125 -0.00818,-0.028863 0.016622,-0.052478 0.055105,-0.052478 0.038484,0 0.062099,-0.024256 0.052478,-0.053902 -0.028038,-0.086397 0.2423367,-0.6458063 0.3121323,-0.6458063 0.034911,0 0.044014,-0.031487 0.020229,-0.069971 -0.023784,-0.038484 -0.013313,-0.069971 0.023271,-0.069971 0.036583,0 0.086272,-0.078717 0.1104189,-0.1749271 0.024147,-0.09621 0.076649,-0.1749271 0.1166711,-0.1749271 0.040022,0 0.05317,-0.031709 0.029218,-0.070465 -0.023953,-0.038756 0.0055,-0.089285 0.065439,-0.1122881 0.059944,-0.023003 0.091431,-0.070233 0.069971,-0.1049563 -0.02146,-0.034723 0.010027,-0.081954 0.069971,-0.1049563 0.059944,-0.023003 0.094588,-0.065125 0.076986,-0.093606 -0.017602,-0.02848 0.07704,-0.1708296 0.2103144,-0.3163317 0.1332748,-0.1455021 0.2423178,-0.286285 0.2423178,-0.3128507 0,-0.026566 0.1023323,-0.1454938 0.2274052,-0.2642843 C 4.5857143,5.253658 4.761287,5.0589432 4.8508029,4.9397489 4.9403189,4.8205546 5.0546576,4.7230321 5.1048889,4.7230321 c 0.050231,0 0.1753863,-0.1102041 0.2781223,-0.244898 0.102736,-0.1346939 0.2127196,-0.2448979 0.244408,-0.2448979 0.031688,0 0.1766623,-0.109043 0.3221644,-0.2423178 C 6.0950857,3.8576437 6.237435,3.7630022 6.2659153,3.780604 c 0.02848,0.017602 0.070603,-0.017042 0.093606,-0.076986 0.023003,-0.059944 0.070233,-0.091431 0.1049563,-0.069971 0.034723,0.02146 0.082917,-0.012538 0.1070975,-0.075551 0.02418,-0.063013 0.062318,-0.096215 0.084751,-0.073782 0.022433,0.022433 0.1051772,-0.019202 0.1838767,-0.092522 0.078699,-0.07332 0.1698084,-0.1167958 0.2024642,-0.096613 0.032656,0.020183 0.059374,0.00873 0.059374,-0.025444 0,-0.069861 0.6963059,-0.4106171 0.7835203,-0.383437 0.030871,0.00962 0.05613,-0.013994 0.05613,-0.052478 0,-0.038484 0.023615,-0.063281 0.052478,-0.055105 0.028863,0.00818 0.1233236,-0.024419 0.2099125,-0.072433 0.086589,-0.048014 0.1574344,-0.066591 0.1574344,-0.041283 0,0.025308 0.039359,0.014776 0.087464,-0.023405 0.083836,-0.06654 0.529934,-0.2274305 0.7038822,-0.2538631 0.045809,-0.00696 0.1226484,-0.037244 0.1707534,-0.067296 0.048105,-0.030052 0.116775,-0.036525 0.1525994,-0.014384 0.035825,0.022141 0.083675,0.010259 0.106334,-0.026404 0.022659,-0.036663 0.09568,-0.067327 0.1622694,-0.068143 0.066589,-8.159e-4 0.2155319,-0.02004 0.330984,-0.042719 C 10.642354,2.0574879 10.931893,2.0375516 12,2.036292 c 1.033371,-0.00122 1.344297,0.020579 1.959184,0.1373486 0.09621,0.018271 0.237901,0.044319 0.314868,0.057886 0.07697,0.013566 0.139942,0.031094 0.139942,0.03895 0,0.00786 0.0551,0.027618 0.122449,0.043915 l 0.244898,0.059264 c 0.06735,0.016297 0.122449,0.034381 0.122449,0.040185 0,0.0058 0.07625,0.024583 0.169436,0.041732 0.09319,0.017148 0.211265,0.065894 0.262391,0.1083243 0.05112,0.04243 0.09295,0.053692 0.09295,0.025025 0,-0.028666 0.04723,-0.012923 0.104957,0.034985 0.05773,0.047908 0.104956,0.066698 0.104956,0.041756 0,-0.024942 0.09413,0.00333 0.209179,0.062821 0.115049,0.059494 0.217381,0.1028771 0.227405,0.096407 0.03582,-0.023117 0.648797,0.3089061 0.690772,0.3741583 0.02354,0.036601 0.05503,0.060947 0.06997,0.054101 0.0564,-0.025844 0.412002,0.1654526 0.412002,0.2216378 0,0.032307 0.04723,0.05874 0.104957,0.05874 0.05773,0 0.104956,0.033345 0.104956,0.0741 0,0.040755 0.03171,0.054503 0.07046,0.03055 0.03876,-0.023952 0.08936,0.00568 0.112442,0.065841 0.02309,0.060165 0.08683,0.1093912 0.141644,0.1093912 0.05482,0 0.117721,0.047049 0.139787,0.1045543 0.02207,0.057505 0.06728,0.08777 0.100472,0.067256 0.03319,-0.020514 0.100441,0.026897 0.149441,0.1053582 0.049,0.078461 0.127263,0.1426568 0.173918,0.1426568 0.04666,0 0.185558,0.1253444 0.308672,0.2785431 0.123113,0.1531988 0.282032,0.2970116 0.353151,0.319584 0.07112,0.022573 0.129308,0.084041 0.129308,0.1365974 0,0.052556 0.141691,0.2116616 0.314869,0.3535678 0.173178,0.1419063 0.314869,0.2938746 0.314869,0.3377075 0,0.043833 0.0642,0.119787 0.142656,0.1687869 0.07846,0.049 0.125873,0.1162483 0.105359,0.149441 -0.02051,0.033193 0.0098,0.078405 0.06725,0.1004717 0.0575,0.022067 0.104555,0.084971 0.104555,0.1397875 0,0.054816 0.04923,0.118556 0.109391,0.1416435 0.06017,0.023088 0.08979,0.073687 0.06584,0.1124424 -0.02395,0.038756 -0.0102,0.070465 0.03055,0.070465 0.04075,0 0.0741,0.04723 0.0741,0.1049562 0,0.057726 0.02643,0.1049563 0.05874,0.1049563 0.06446,0 0.252928,0.3532026 0.233355,0.4373178 -0.0067,0.028863 0.02114,0.052478 0.06189,0.052478 0.04076,0 0.05464,0.031487 0.03086,0.069971 -0.02379,0.038484 -0.0047,0.069971 0.04252,0.069971 0.04717,0 0.06627,0.019492 0.04245,0.043315 -0.02382,0.023823 0.0027,0.089336 0.05895,0.1455827 0.05625,0.056247 0.08438,0.1312159 0.06251,0.1665973 -0.02187,0.035381 -0.0046,0.06433 0.03847,0.06433 0.04303,0 0.05877,0.031487 0.03499,0.069971 -0.02378,0.038484 -0.01494,0.069971 0.01966,0.069971 0.05926,0 0.235482,0.4429481 0.236618,0.5947521 2.8e-4,0.038484 0.03319,0.1093295 0.07311,0.1574345 0.03992,0.048105 0.04913,0.087464 0.02047,0.087464 -0.02867,0 -0.01292,0.04723 0.03498,0.1049563 0.04791,0.057726 0.06365,0.1049562 0.03499,0.1049562 -0.02867,0 -0.01292,0.04723 0.03499,0.1049563 0.04791,0.057726 0.06365,0.1049563 0.03498,0.1049563 -0.02867,0 -0.01407,0.045851 0.03244,0.1018915 0.04651,0.05604 0.06559,0.1325815 0.04241,0.1700922 -0.02318,0.037511 -0.01215,0.08674 0.02451,0.1093987 0.03666,0.022659 0.06733,0.09568 0.06814,0.1622694 8.19e-4,0.066589 0.02079,0.2155319 0.04439,0.330984 0.107691,0.526824 0.129042,0.845199 0.129042,1.924198 0,1.208903 -0.03538,1.604073 -0.200444,2.239067 -0.02501,0.09621 -0.05496,0.237901 -0.06656,0.314869 -0.0116,0.07697 -0.02904,0.147813 -0.03877,0.157434 -0.0097,0.0096 -0.02555,0.04898 -0.03517,0.08746 -0.0096,0.03848 -0.02536,0.08571 -0.03498,0.104956 -0.0096,0.01924 -0.02537,0.06647 -0.03499,0.104956 -0.0096,0.03848 -0.02536,0.08572 -0.03499,0.104957 -0.0096,0.01924 -0.02536,0.06647 -0.03498,0.104956 -0.0096,0.03848 -0.02537,0.08571 -0.03499,0.104956 -0.0096,0.01924 -0.02154,0.0586 -0.02649,0.08746 -0.03601,0.210119 -0.217494,0.64723 -0.268727,0.64723 -0.03459,0 -0.04344,0.03149 -0.01966,0.06997 0.02378,0.03848 0.008,0.06997 -0.03499,0.06997 -0.04303,0 -0.06034,0.02895 -0.03847,0.06433 0.02187,0.03538 -0.0063,0.11035 -0.06251,0.166597 -0.05625,0.05625 -0.08278,0.121759 -0.05895,0.145582 0.02382,0.02382 0.0047,0.04332 -0.04245,0.04332 -0.04717,0 -0.0663,0.03149 -0.04252,0.06997 0.02378,0.03848 0.0099,0.06997 -0.03086,0.06997 -0.04076,0 -0.06688,0.02362 -0.05806,0.05248 0.02322,0.07598 -0.311092,0.64723 -0.378774,0.64723 -0.0314,0 -0.05709,0.04723 -0.05709,0.104956 0,0.05773 -0.03149,0.104956 -0.06997,0.104956 -0.03848,0 -0.06997,0.04822 -0.06997,0.107152 0,0.05894 -0.04705,0.125208 -0.104555,0.147274 -0.0575,0.02207 -0.08777,0.06728 -0.06725,0.100472 0.02051,0.03319 -0.0269,0.100441 -0.105359,0.149441 -0.07846,0.049 -0.142656,0.114979 -0.142656,0.146621 0,0.07611 -1.370674,1.448166 -1.446709,1.448166 -0.03244,0 -0.09908,0.0642 -0.148078,0.142656 -0.049,0.07846 -0.116248,0.125873 -0.149441,0.105359 -0.03319,-0.02051 -0.07841,0.0098 -0.100472,0.06725 -0.02207,0.0575 -0.08834,0.104555 -0.147274,0.104555 -0.05893,0 -0.107152,0.03149 -0.107152,0.06997 0,0.03848 -0.04723,0.06997 -0.104956,0.06997 -0.05773,0 -0.104956,0.02569 -0.104956,0.05709 0,0.06768 -0.57125,0.40199 -0.64723,0.378774 -0.02886,-0.0088 -0.05248,0.0207 -0.05248,0.0656 0,0.0449 -0.01949,0.06214 -0.04331,0.03832 -0.02382,-0.02382 -0.08933,0.0027 -0.145583,0.05895 -0.05625,0.05625 -0.131215,0.08438 -0.166597,0.06251 -0.03538,-0.02187 -0.06433,-0.0046 -0.06433,0.03847 0,0.04303 -0.03149,0.05877 -0.06997,0.03498 -0.03848,-0.02378 -0.06997,-0.0099 -0.06997,0.03086 0,0.04076 -0.02361,0.06763 -0.05248,0.05972 -0.02886,-0.0079 -0.154811,0.04013 -0.279884,0.106753 -0.125073,0.06663 -0.227405,0.100731 -0.227405,0.07579 0,-0.02494 -0.04723,-0.0062 -0.104956,0.04176 -0.05773,0.04791 -0.104957,0.06365 -0.104957,0.03499 0,-0.02867 -0.04723,-0.01292 -0.104956,0.03498 -0.05773,0.04791 -0.104956,0.06365 -0.104956,0.03499 0,-0.02867 -0.05207,-0.0089 -0.11571,0.04391 -0.06364,0.05282 -0.126615,0.08816 -0.139942,0.07854 -0.01333,-0.0096 -0.0321,-0.01508 -0.04172,-0.01214 -0.0096,0.0029 -0.06472,0.01685 -0.122449,0.0309 -0.187066,0.04552 -0.416246,0.102773 -0.57726,0.1442 -0.08659,0.02228 -0.220408,0.05219 -0.297376,0.06648 -0.07697,0.01428 -0.250146,0.04683 -0.384839,0.07233 -0.289079,0.05472 -2.628252,0.10789 -2.675331,0.06081 z m 2.395447,-2.082963 c 0.352501,-0.06794 0.529719,-0.109726 0.752187,-0.17737 0.125073,-0.03803 0.227405,-0.05174 0.227405,-0.03048 0,0.02127 0.04723,-5.59e-4 0.104956,-0.04844 0.05773,-0.04791 0.104957,-0.06365 0.104957,-0.03498 0,0.02867 0.04723,0.01292 0.104956,-0.03499 0.05773,-0.04791 0.104956,-0.06365 0.104956,-0.03499 0,0.02867 0.04723,0.01292 0.104956,-0.03499 0.05773,-0.04791 0.105439,-0.05964 0.106028,-0.02606 5.6e-4,0.03357 0.02704,0.02011 0.05877,-0.02992 0.03174,-0.05003 0.125715,-0.09609 0.208841,-0.102354 0.08313,-0.0063 0.151139,-0.03803 0.151139,-0.0706 0,-0.03256 0.03149,-0.03975 0.06997,-0.01596 0.03848,0.02378 0.06997,0.008 0.06997,-0.03499 0,-0.04303 0.03149,-0.05877 0.06997,-0.03499 0.03848,0.02378 0.06997,0.008 0.06997,-0.03499 0,-0.04303 0.03149,-0.05877 0.06997,-0.03498 0.03848,0.02378 0.06997,0.0047 0.06997,-0.04252 0,-0.04717 0.0184,-0.06736 0.0409,-0.04486 0.02249,0.02249 0.09334,-0.004 0.157435,-0.05888 0.06409,-0.05488 0.140761,-0.09887 0.170372,-0.09775 0.02961,0.0011 0.122137,-0.0616 0.205614,-0.139369 0.08348,-0.07777 0.189701,-0.141401 0.236052,-0.141401 0.04635,0 0.10413,-0.05174 0.128395,-0.114971 0.02426,-0.06323 0.06417,-0.09492 0.08867,-0.07042 0.02451,0.02451 0.08852,-0.01822 0.142262,-0.09494 0.05374,-0.07672 0.123853,-0.139497 0.155811,-0.139497 0.07584,0 1.123465,-1.047629 1.123465,-1.123465 0,-0.03196 0.06277,-0.102072 0.139497,-0.155811 0.07672,-0.05374 0.119447,-0.117757 0.09494,-0.142262 -0.0245,-0.02451 0.0072,-0.06441 0.07042,-0.08867 0.06323,-0.02426 0.114971,-0.08204 0.114971,-0.128395 0,-0.04635 0.05687,-0.145315 0.126371,-0.219919 0.0695,-0.0746 0.124606,-0.158237 0.122449,-0.185852 -0.0022,-0.02762 0.04859,-0.111544 0.112779,-0.186506 0.06419,-0.07496 0.0983,-0.154702 0.0758,-0.177196 -0.02249,-0.0225 -0.0023,-0.0409 0.04486,-0.0409 0.04717,0 0.0663,-0.03149 0.04252,-0.06997 -0.02379,-0.03848 -0.008,-0.06997 0.03498,-0.06997 0.04303,0 0.05877,-0.03149 0.03499,-0.06997 -0.02379,-0.03848 -0.0099,-0.06997 0.03086,-0.06997 0.04076,0 0.06894,-0.02361 0.06262,-0.05248 -0.02501,-0.114373 0.101016,-0.437317 0.170667,-0.437317 0.04073,0 0.05333,-0.02072 0.02801,-0.04604 -0.02532,-0.02532 -0.01097,-0.0883 0.03189,-0.139941 0.04286,-0.05165 0.05448,-0.0939 0.02581,-0.0939 -0.02867,0 -0.01292,-0.04723 0.03499,-0.104956 0.04791,-0.05773 0.06365,-0.104956 0.03499,-0.104956 -0.02867,0 -0.01292,-0.04723 0.03498,-0.104957 0.04791,-0.05773 0.0697,-0.104956 0.04844,-0.104956 -0.02127,0 -0.0077,-0.102332 0.03026,-0.227405 0.189884,-0.626504 0.222162,-0.918773 0.222162,-2.011662 0,-1.092889 -0.03228,-1.385158 -0.222162,-2.0116618 -0.03791,-0.1250729 -0.05152,-0.2274053 -0.03026,-0.2274053 0.02127,0 -5.59e-4,-0.04723 -0.04844,-0.1049562 -0.04791,-0.057726 -0.06365,-0.1049563 -0.03498,-0.1049563 0.02867,0 0.01292,-0.04723 -0.03499,-0.1049563 -0.04791,-0.057726 -0.06365,-0.1049562 -0.03499,-0.1049562 0.02867,0 0.01705,-0.042255 -0.02581,-0.093902 -0.04286,-0.051645 -0.05721,-0.1146192 -0.03189,-0.1399417 0.02532,-0.025322 0.01272,-0.04604 -0.02801,-0.04604 -0.06965,0 -0.195682,-0.322944 -0.170667,-0.4373178 0.0063,-0.028863 -0.02187,-0.052478 -0.06262,-0.052478 -0.04076,0 -0.05464,-0.031487 -0.03086,-0.069971 0.02378,-0.038484 0.008,-0.069971 -0.03499,-0.069971 -0.04303,0 -0.05877,-0.031487 -0.03498,-0.069971 0.02378,-0.038484 0.008,-0.069971 -0.03499,-0.069971 -0.04303,0 -0.05877,-0.031487 -0.03498,-0.069971 0.02378,-0.038484 0.01202,-0.069971 -0.02614,-0.069971 -0.03816,0 -0.09149,-0.070846 -0.118516,-0.1574344 -0.02702,-0.086589 -0.06868,-0.1731778 -0.09258,-0.1924198 -0.107167,-0.086298 -0.429002,-0.5597668 -0.380496,-0.5597668 0.02976,0 -0.01586,-0.049016 -0.101395,-0.1089239 -0.08553,-0.059908 -0.155511,-0.1363732 -0.155511,-0.1699222 0,-0.07254 -1.057763,-1.1205708 -1.130976,-1.1205708 -0.02783,0 -0.09961,-0.06998 -0.159517,-0.1555106 -0.05991,-0.085531 -0.108924,-0.1311588 -0.108924,-0.1013954 0,0.048506 -0.473468,-0.2733287 -0.559766,-0.3804955 -0.01924,-0.023895 -0.105831,-0.065555 -0.19242,-0.092577 -0.08659,-0.027022 -0.157434,-0.080355 -0.157434,-0.1185165 0,-0.038162 -0.03149,-0.049925 -0.06997,-0.026141 -0.03848,0.023784 -0.06997,0.00804 -0.06997,-0.034985 0,-0.043026 -0.03149,-0.05877 -0.06997,-0.034985 -0.03848,0.023784 -0.06997,0.00804 -0.06997,-0.034985 0,-0.043026 -0.03149,-0.05877 -0.06997,-0.034985 -0.03848,0.023784 -0.06997,0.0099 -0.06997,-0.030856 0,-0.040755 -0.02361,-0.068935 -0.05248,-0.062622 -0.104508,0.022858 -0.437317,-0.098149 -0.437317,-0.1590049 0,-0.034312 -0.02362,-0.058657 -0.05248,-0.054099 -0.02886,0.00456 -0.07609,6.227e-4 -0.104956,-0.00875 -0.02886,-0.00937 -0.08396,-0.024904 -0.122449,-0.034525 -0.03848,-0.00962 -0.08571,-0.025364 -0.104956,-0.034985 -0.01924,-0.00962 -0.06647,-0.025364 -0.104956,-0.034985 -0.03848,-0.00962 -0.07784,-0.023768 -0.08746,-0.031439 -0.0096,-0.00767 -0.09621,-0.027716 -0.19242,-0.044546 -0.09621,-0.01683 -0.222157,-0.050349 -0.279883,-0.074486 C 13.575194,4.1263891 13.05623,4.075958 12,4.0741047 c -1.091964,-0.00192 -1.383643,0.030038 -2.0116618,0.2203812 -0.1250729,0.037908 -0.2274053,0.051522 -0.2274053,0.030255 0,-0.021268 -0.04723,5.318e-4 -0.1049562,0.048437 -0.057726,0.047908 -0.1049563,0.063652 -0.1049563,0.034986 0,-0.028666 -0.04723,-0.012923 -0.1049563,0.034985 -0.057726,0.047908 -0.1049562,0.063652 -0.1049562,0.034985 0,-0.028666 -0.042255,-0.017051 -0.093902,0.025811 -0.051645,0.042862 -0.1146192,0.057213 -0.1399417,0.031891 -0.025322,-0.025322 -0.04604,-0.012719 -0.04604,0.028007 0,0.069651 -0.322944,0.1956823 -0.4373178,0.1706668 -0.028863,-0.00631 -0.052478,0.021867 -0.052478,0.062622 0,0.040755 -0.031487,0.05464 -0.069971,0.030856 -0.038484,-0.023784 -0.069971,-0.00804 -0.069971,0.034985 0,0.043026 -0.031487,0.05877 -0.069971,0.034985 -0.038484,-0.023784 -0.069971,-0.00804 -0.069971,0.034985 0,0.043026 -0.031487,0.05877 -0.069971,0.034985 -0.038484,-0.023784 -0.069971,-0.012021 -0.069971,0.026141 0,0.038162 -0.068425,0.091102 -0.1520554,0.1176457 -0.08363,0.026543 -0.2155152,0.1073823 -0.2930772,0.1796422 -0.077562,0.07226 -0.1789461,0.1313818 -0.2252982,0.1313818 -0.046352,0 -0.1041297,0.051737 -0.1283949,0.1149711 -0.024265,0.063234 -0.064168,0.094921 -0.088674,0.070416 -0.024505,-0.024505 -0.088523,0.018218 -0.1422623,0.094941 -0.053739,0.076723 -0.1251565,0.1394966 -0.1587055,0.1394966 -0.07254,0 -1.1205708,1.0577633 -1.1205708,1.1309763 0,0.027826 -0.062773,0.094561 -0.1394966,0.1483 -0.076723,0.053739 -0.1194467,0.1177571 -0.094941,0.1422623 0.024505,0.024505 -0.00718,0.064408 -0.070416,0.088674 -0.063234,0.024265 -0.1149711,0.082043 -0.1149711,0.1283949 0,0.046352 -0.059122,0.1477362 -0.1313818,0.2252982 -0.07226,0.077562 -0.1530989,0.2094467 -0.1796422,0.2930772 -0.026543,0.08363 -0.079484,0.1520554 -0.1176457,0.1520554 -0.038162,0 -0.049925,0.031487 -0.026141,0.069971 0.023784,0.038484 0.00804,0.069971 -0.034985,0.069971 -0.043026,0 -0.05877,0.031487 -0.034985,0.069971 0.023784,0.038484 0.00804,0.069971 -0.034985,0.069971 -0.043026,0 -0.05877,0.031487 -0.034985,0.069971 0.023784,0.038484 0.0099,0.069971 -0.030856,0.069971 -0.040755,0 -0.068935,0.023615 -0.062622,0.052478 0.025016,0.1143738 -0.101016,0.4373178 -0.1706668,0.4373178 -0.040726,0 -0.053329,0.020718 -0.028007,0.04604 0.025322,0.025322 0.010971,0.088296 -0.031891,0.1399417 -0.042862,0.051646 -0.054477,0.093902 -0.025811,0.093902 0.028666,0 0.012923,0.04723 -0.034985,0.1049562 -0.047908,0.057726 -0.063652,0.1049563 -0.034985,0.1049563 0.028666,0 0.012923,0.04723 -0.034986,0.1049563 -0.047908,0.057726 -0.069705,0.1049562 -0.048437,0.1049562 0.021268,0 0.00765,0.1023324 -0.030255,0.2274053 C 4.1046018,10.614842 4.0723245,10.907111 4.0723245,12 c 0,1.092889 0.032277,1.385158 0.2221614,2.011662 0.037908,0.125073 0.051522,0.227405 0.030255,0.227405 -0.021268,0 5.318e-4,0.04723 0.048437,0.104956 0.047908,0.05773 0.063652,0.104957 0.034986,0.104957 -0.028666,0 -0.012923,0.04723 0.034985,0.104956 0.047908,0.05773 0.063652,0.104956 0.034985,0.104956 -0.028666,0 -0.017051,0.04226 0.025811,0.0939 0.042862,0.05165 0.057213,0.114619 0.031891,0.139941 -0.025322,0.02532 -0.012719,0.04604 0.028007,0.04604 0.069651,0 0.1956823,0.322944 0.1706668,0.437317 -0.00631,0.02886 0.021867,0.05248 0.062622,0.05248 0.040755,0 0.05464,0.03149 0.030856,0.06997 -0.023784,0.03848 -0.00804,0.06997 0.034985,0.06997 0.043026,0 0.05877,0.03149 0.034985,0.06997 -0.023784,0.03848 -0.00804,0.06997 0.034985,0.06997 0.043026,0 0.05877,0.03149 0.034985,0.06997 -0.023784,0.03848 -0.012021,0.06997 0.026141,0.06997 0.038162,0 0.091102,0.06842 0.1176457,0.152055 0.026543,0.08363 0.1073823,0.215515 0.1796422,0.293077 0.07226,0.07756 0.1313818,0.178947 0.1313818,0.225298 0,0.04635 0.051737,0.10413 0.1149711,0.128395 0.063234,0.02426 0.094921,0.06417 0.070416,0.08867 -0.024505,0.02451 0.018218,0.08852 0.094941,0.142262 0.076723,0.05374 0.1394966,0.123853 0.1394966,0.155811 0,0.07584 1.0476294,1.123465 1.1234658,1.123465 0.031957,0 0.1020716,0.06277 0.1558105,0.139497 0.053739,0.07672 0.1177571,0.119447 0.1422623,0.09494 0.024505,-0.0245 0.064408,0.0072 0.088674,0.07042 0.024265,0.06323 0.082043,0.114971 0.1283949,0.114971 0.046352,0 0.1525757,0.06363 0.2360525,0.141401 0.083477,0.07777 0.1671104,0.132873 0.1858524,0.122449 0.018742,-0.01042 0.09541,0.03356 0.170373,0.09775 0.074963,0.06419 0.1547011,0.0983 0.1771956,0.0758 0.022494,-0.02249 0.040899,-0.0023 0.040899,0.04486 0,0.04717 0.031487,0.0663 0.069971,0.04252 0.038484,-0.02379 0.069971,-0.008 0.069971,0.03498 0,0.04303 0.031487,0.05877 0.069971,0.03499 0.038484,-0.02379 0.069971,-0.0099 0.069971,0.03086 0,0.04076 0.023615,0.06894 0.052478,0.06262 0.1143738,-0.02501 0.4373178,0.101016 0.4373178,0.170667 0,0.04073 0.020718,0.05333 0.04604,0.02801 0.025322,-0.02532 0.088296,-0.01097 0.1399417,0.03189 0.051646,0.04286 0.093902,0.05448 0.093902,0.02581 0,-0.02867 0.04723,-0.01292 0.1049562,0.03499 0.057726,0.04791 0.1049563,0.06365 0.1049563,0.03499 0,-0.02867 0.04723,-0.01292 0.1049563,0.03498 0.057726,0.04791 0.1049562,0.0697 0.1049562,0.04844 0,-0.02127 0.1023324,-0.0077 0.2274053,0.03026 0.3037908,0.09207 0.4615528,0.127102 0.7443958,0.165273 0.130409,0.0176 0.250287,0.04518 0.266396,0.06129 0.03817,0.03817 2.032382,-0.005 2.260345,-0.04897 z"
     id="path3512"
     inkscape:connector-curvature="0" />
  <path
     style="fill:#deaa87"
     d="m 6.9045319,17.370262 c 0.048014,-0.08659 0.080609,-0.181049 0.072433,-0.209912 -0.00818,-0.02886 0.01848,-0.05248 0.059235,-0.05248 0.040755,0 0.05464,-0.03149 0.030856,-0.06997 -0.023784,-0.03848 -0.00804,-0.06997 0.034985,-0.06997 0.043026,0 0.05877,-0.03149 0.034985,-0.06997 -0.023784,-0.03848 -0.0099,-0.06997 0.030856,-0.06997 0.040755,0 0.066424,-0.02362 0.057042,-0.05248 -0.025141,-0.07734 0.2975544,-0.577259 0.3726192,-0.577259 0.035345,0 0.064264,-0.03324 0.064264,-0.07386 0,-0.07232 0.867651,-0.975705 0.9371141,-0.975705 0.019397,0 0.1205423,-0.07903 0.2247668,-0.175622 0.1042245,-0.09659 0.2036593,-0.161462 0.2209659,-0.144155 0.017307,0.01731 0.095857,-0.02852 0.1745568,-0.101842 0.078699,-0.07332 0.1698084,-0.116796 0.2024642,-0.09661 0.032656,0.02018 0.059374,0.0015 0.059374,-0.04154 0,-0.04303 0.031487,-0.05877 0.069971,-0.03498 0.038484,0.02378 0.069971,0.0099 0.069971,-0.03086 0,-0.04076 0.023615,-0.06741 0.052478,-0.05924 0.028863,0.0082 0.1233236,-0.02442 0.2099125,-0.07243 0.086589,-0.04801 0.1574341,-0.06659 0.1574341,-0.04128 0,0.02531 0.04183,0.0113 0.09295,-0.03113 0.05113,-0.04243 0.169202,-0.09118 0.262391,-0.108324 0.09319,-0.01715 0.169436,-0.03754 0.169436,-0.04531 0,-0.01436 0.06213,-0.02666 0.559766,-0.110803 0.362389,-0.06128 1.390223,-0.0609 1.749272,6.48e-4 0.153935,0.02639 0.327113,0.05135 0.384839,0.05548 0.05773,0.0041 0.144315,0.03856 0.19242,0.07651 0.0481,0.03795 0.08746,0.04555 0.08746,0.01688 0,-0.02867 0.04723,-0.01292 0.104956,0.03499 0.05773,0.04791 0.104956,0.06365 0.104956,0.03498 0,-0.02867 0.04723,-0.01292 0.104956,0.03499 0.05773,0.04791 0.104957,0.0664 0.104957,0.04109 0,-0.02531 0.07085,-0.0067 0.157434,0.04128 0.08659,0.04801 0.18105,0.08061 0.209913,0.07243 0.02886,-0.0082 0.05248,0.01848 0.05248,0.05924 0,0.04075 0.03149,0.05464 0.06997,0.03086 0.03848,-0.02379 0.06997,-0.008 0.06997,0.03498 0,0.04303 0.03149,0.05877 0.06997,0.03499 0.03848,-0.02379 0.06997,-0.01331 0.06997,0.02327 0,0.03658 0.0733,0.08491 0.162888,0.107397 0.08959,0.02249 0.248645,0.12036 0.353459,0.217498 0.104814,0.09714 0.206442,0.176616 0.225839,0.176616 0.06946,0 0.937114,0.903381 0.937114,0.975705 0,0.04062 0.02892,0.07386 0.06426,0.07386 0.07506,0 0.39776,0.499917 0.37262,0.577259 -0.0094,0.02886 0.01629,0.05248 0.05704,0.05248 0.04075,0 0.05464,0.03149 0.03086,0.06997 -0.02379,0.03848 -0.008,0.06997 0.03498,0.06997 0.04303,0 0.05877,0.03149 0.03499,0.06997 -0.02379,0.03848 -0.0099,0.06997 0.03085,0.06997 0.04076,0 0.06741,0.02361 0.05924,0.05248 -0.0082,0.02886 0.02442,0.123323 0.07243,0.209912 l 0.0873,0.157435 -0.916212,0 c -0.592991,0 -0.900956,-0.02469 -0.872968,-0.06997 0.02378,-0.03848 0.0099,-0.06997 -0.03086,-0.06997 -0.04076,0 -0.0741,-0.04386 -0.0741,-0.09747 0,-0.05361 -0.04723,-0.115594 -0.104957,-0.137746 -0.05773,-0.02215 -0.104956,-0.07401 -0.104956,-0.115245 0,-0.08708 -0.524387,-0.600582 -0.670622,-0.656698 -0.05448,-0.02091 -0.09906,-0.07049 -0.09906,-0.110178 0,-0.03969 -0.04723,-0.07217 -0.104956,-0.07217 -0.05773,0 -0.104957,-0.02456 -0.104957,-0.05457 0,-0.03001 -0.157434,-0.11566 -0.349854,-0.19033 -0.19242,-0.07467 -0.349854,-0.160319 -0.349854,-0.190331 0,-0.03001 -0.02361,-0.05084 -0.05248,-0.04628 -0.02886,0.0046 -0.06822,0.0021 -0.08746,-0.0054 -0.05266,-0.02053 -0.289161,-0.07201 -0.524781,-0.114233 -0.55142,-0.09881 -1.731491,-0.01828 -1.976677,0.134891 -0.0481,0.03005 -0.08795,0.02917 -0.08854,-0.002 -5.87e-4,-0.03113 -0.0242,-0.02425 -0.05248,0.01529 -0.02827,0.03955 -0.193097,0.133561 -0.366275,0.208921 -0.173178,0.07536 -0.3932644,0.208311 -0.4890811,0.295445 -0.095817,0.08713 -0.1944446,0.158426 -0.2191734,0.158426 -0.068986,0 -0.6019205,0.548564 -0.6469594,0.665933 -0.021896,0.05706 -0.072286,0.103747 -0.111978,0.103747 -0.039692,0 -0.072167,0.04723 -0.072167,0.104956 0,0.05773 -0.033345,0.104956 -0.0741,0.104956 -0.040755,0 -0.05464,0.03149 -0.030856,0.06997 0.027989,0.04529 -0.2799774,0.06997 -0.872968,0.06997 l -0.9162122,0 0.087298,-0.157435 z"
     id="path3514"
     inkscape:connector-curvature="0" />
  <path
     style="fill:#deaa87"
     d="m 8.0408543,10.941064 c -0.021374,-0.03458 -0.068173,-0.04476 -0.1039982,-0.02262 -0.035825,0.02214 -0.065136,0.0051 -0.065136,-0.03797 0,-0.04303 -0.031487,-0.05877 -0.069971,-0.03499 -0.038484,0.02378 -0.069971,0.0099 -0.069971,-0.03086 0,-0.04075 -0.045888,-0.0741 -0.1019732,-0.0741 -0.097466,0 -0.4916156,-0.432791 -0.4938504,-0.542267 -5.893e-4,-0.02887 -0.0272,-0.09368 -0.059135,-0.144039 -0.077318,-0.1219125 -0.1090125,-0.8693094 -0.040626,-0.9580091 0.05401,-0.070053 0.065847,-0.1140773 0.065847,-0.2448979 0,-0.091221 0.5788147,-0.6700356 0.6472303,-0.6472304 0.028863,0.00962 0.052478,-0.013994 0.052478,-0.052478 0,-0.038484 0.023615,-0.066242 0.052478,-0.061685 0.028863,0.00456 0.068222,0.00215 0.087464,-0.00535 0.3135246,-0.1222321 0.8060088,-0.1222321 1.1195335,0 0.019242,0.0075 0.058601,0.00991 0.087464,0.00535 0.028863,-0.00456 0.052478,0.023201 0.052478,0.061685 0,0.038484 0.023615,0.062384 0.052478,0.053111 0.028863,-0.00927 0.1732571,0.1009315 0.3208757,0.244898 0.1476187,0.1439665 0.2420794,0.2622394 0.2099126,0.2628287 -0.032167,5.878e-4 -0.018389,0.026519 0.030618,0.057621 0.1388211,0.088103 0.2657318,0.9260358 0.16597,1.0958268 -0.022611,0.038484 -0.050582,0.1308743 -0.062157,0.2053118 -0.029692,0.190947 -0.3641989,0.611501 -0.5184739,0.651845 -0.071089,0.01859 -0.1292523,0.06347 -0.1292523,0.09974 0,0.03627 -0.031487,0.04648 -0.069971,0.02269 -0.038484,-0.02378 -0.069971,-0.008 -0.069971,0.03499 0,0.04303 -0.029311,0.06011 -0.065136,0.03797 -0.035825,-0.02214 -0.082624,-0.01196 -0.1039981,0.02262 -0.050658,0.08197 -0.8705491,0.08197 -0.9212069,0 z"
     id="path3516"
     inkscape:connector-curvature="0" />
</svg>
