<?xml version="1.0" encoding="UTF-8" standalone="no"?>
<svg
   xmlns:dc="http://purl.org/dc/elements/1.1/"
   xmlns:cc="http://creativecommons.org/ns#"
   xmlns:rdf="http://www.w3.org/1999/02/22-rdf-syntax-ns#"
   xmlns:svg="http://www.w3.org/2000/svg"
   xmlns="http://www.w3.org/2000/svg"
   xmlns:sodipodi="http://sodipodi.sourceforge.net/DTD/sodipodi-0.dtd"
   xmlns:inkscape="http://www.inkscape.org/namespaces/inkscape"
   fill="#000000"
   height="24"
   viewBox="0 0 24 24"
   width="24"
   id="svg3464"
   version="1.1"
   inkscape:version="0.91 r13725"
   sodipodi:docname="good.svg">
  <metadata
     id="metadata3478">
    <rdf:RDF>
      <cc:Work
         rdf:about="">
        <dc:format>image/svg+xml</dc:format>
        <dc:type
           rdf:resource="http://purl.org/dc/dcmitype/StillImage" />
        <dc:title></dc:title>
      </cc:Work>
    </rdf:RDF>
  </metadata>
  <defs
     id="defs3476" />
  <sodipodi:namedview
     pagecolor="#ffffff"
     bordercolor="#666666"
     borderopacity="1"
     objecttolerance="10"
     gridtolerance="10"
     guidetolerance="10"
     inkscape:pageopacity="0"
     inkscape:pageshadow="2"
     inkscape:window-width="1855"
     inkscape:window-height="1056"
     id="namedview3474"
     showgrid="false"
     inkscape:zoom="9.8333333"
     inkscape:cx="12"
     inkscape:cy="12"
     inkscape:window-x="65"
     inkscape:window-y="24"
     inkscape:window-maximized="1"
     inkscape:current-layer="svg3464" />
  <path
     d="M0 0h24v24H0z"
     fill="none"
     id="path3466" />
  <circle
     cx="15.5"
     cy="9.5"
     r="1.5"
     id="circle3468" />
  <circle
     cx="8.5"
     cy="9.5"
     r="1.5"
     id="circle3470" />
  <path
     d="M11.99 2C6.47 2 2 6.48 2 12s4.47 10 9.99 10C17.52 22 22 17.52 22 12S17.52 2 11.99 2zM12 20c-4.42 0-8-3.58-8-8s3.58-8 8-8 8 3.58 8 8-3.58 8-8 8zm0-4c-1.48 0-2.75-.81-3.45-2H6.88c.8 2.05 2.79 3.5 5.12 3.5s4.32-1.45 5.12-3.5h-1.67c-.7 1.19-1.97 2-3.45 2z"
     id="path3472" />
  <path
     style="fill:#008000"
     d="M 10.284827,21.801549 C 4.7723306,20.753157 1.2158726,15.609529 2.2280118,10.149153 2.4557353,8.9206096 3.0703632,7.4249616 3.7742765,6.3864407 4.2288739,5.7157488 5.5323313,4.3959072 6.2338983,3.8959019 8.2012076,2.4938048 10.716073,1.8370002 13.05072,2.1155604 c 4.599554,0.5487995 8.134138,3.9761578 8.798279,8.5313736 0.451167,3.094468 -0.736474,6.425279 -3.067828,8.603913 -1.212625,1.133189 -2.798591,2.00248 -4.371663,2.396171 -1.094926,0.274026 -3.101157,0.349189 -4.124681,0.154531 z m 3.57619,-1.985459 c 3.028886,-0.729872 5.326146,-3.082405 6.002116,-6.146531 0.239332,-1.08487 0.166731,-2.960551 -0.153975,-3.9780336 C 19.278047,8.3237675 18.734588,7.4394099 17.677957,6.3861981 17.144742,5.8547088 16.441472,5.2633041 16.115134,5.0719656 14.787022,4.2932664 12.945423,3.8646521 11.430954,3.9817685 6.0984632,4.3941388 2.6589444,9.6859695 4.4442603,14.731063 c 0.4196391,1.18585 0.8742811,1.875771 1.9419378,2.946894 1.0029192,1.006175 1.9083453,1.579583 3.1095835,1.969302 1.2855374,0.417069 3.0516154,0.485375 4.3652354,0.168831 z"
     id="path3480"
     inkscape:connector-curvature="0" />
  <path
     style="fill:#008000"
     d="M 11.050383,21.936851 C 6.9210747,21.588093 3.4376035,18.603382 2.2952004,14.435229 1.9739306,13.263049 1.9786082,10.744508 2.304294,9.5389831 3.0929121,6.619915 4.9763165,4.3286422 7.6576271,3.0263367 9.2338531,2.2607681 10.087883,2.0723364 11.979661,2.0727313 c 1.722653,3.6e-4 2.32907,0.1059482 3.745407,0.6521457 1.595047,0.6151148 3.4896,2.1335219 4.507366,3.6124677 2.709068,3.9366263 2.209633,9.3302483 -1.177605,12.7174843 -1.586839,1.586841 -3.875005,2.691616 -5.893394,2.845456 -0.398281,0.03036 -0.838554,0.0677 -0.978384,0.08298 -0.139831,0.01528 -0.649531,-0.0056 -1.132668,-0.04641 z m 3.059433,-2.230302 c 0.875659,-0.246592 1.981522,-0.778915 2.673708,-1.287027 0.807953,-0.593092 1.773792,-1.738808 2.260941,-2.682018 0.688224,-1.332529 0.910684,-2.241096 0.907648,-3.706996 -0.0031,-1.489731 -0.185885,-2.3036347 -0.79941,-3.5593216 -1.343907,-2.7505408 -4.02668,-4.4237288 -7.092963,-4.4237288 -1.453129,0 -2.3325604,0.2029401 -3.639401,0.8398378 C 7.478728,5.3461962 7.2369064,5.5229042 6.3740182,6.382619 5.5017503,7.2516789 5.3397436,7.4732229 4.8820825,8.42284 c -0.63273,1.3128737 -0.8346249,2.192636 -0.8346249,3.6369 0,3.262881 1.8844736,6.068329 4.927025,7.334947 1.5434624,0.642545 3.5322004,0.763319 5.1353334,0.311862 z"
     id="path3482"
     inkscape:connector-curvature="0" />
  <path
     style="fill:#008000"
     d="M 10.874324,17.422497 C 9.405022,17.089329 8.2218805,16.285583 7.4067494,15.06686 6.6741257,13.971497 6.692329,13.911864 7.759322,13.911864 c 0.4754238,0 0.8644068,0.04208 0.8644068,0.0935 0,0.265387 1.0854659,1.251244 1.7130682,1.555867 0.615366,0.298684 0.764408,0.32872 1.642864,0.331084 0.838384,0.0023 1.042903,-0.0334 1.547052,-0.269697 0.73141,-0.342819 1.215793,-0.726899 1.612446,-1.27855 l 0.310767,-0.432204 0.864941,0 c 0.850121,0 0.86373,0.0039 0.794259,0.228814 -0.235457,0.762232 -1.169403,1.891897 -2.044139,2.472514 -1.184885,0.786482 -2.862512,1.110467 -4.190663,0.809305 z"
     id="path3484"
     inkscape:connector-curvature="0" />
  <path
     style="fill:#008000"
     d="M 10.505085,17.281363 C 10.169492,17.18493 9.6433241,16.970818 9.3358238,16.805558 8.6046783,16.412618 7.5275351,15.326067 7.1719204,14.622755 l -0.282317,-0.558348 0.3331644,-0.07144 c 0.1832404,-0.03929 0.5633791,-0.04561 0.8447526,-0.01404 0.4073975,0.0457 0.5523768,0.114799 0.7118644,0.339263 0.2855021,0.401817 1.1339011,1.080767 1.6726372,1.338566 0.627911,0.300471 1.903072,0.371681 2.668922,0.149042 0.729229,-0.211993 1.450532,-0.712906 1.960412,-1.36142 l 0.40678,-0.517381 0.661017,-0.006 c 0.938527,-0.0085 1.027319,0.07238 0.719573,0.655726 -0.651082,1.23415 -2.114812,2.372647 -3.521502,2.739044 -0.776471,0.202245 -2.073234,0.186552 -2.842139,-0.03439 z"
     id="path3486"
     inkscape:connector-curvature="0" />
  <path
     style="fill:#008000"
     d="m 7.9576701,10.824981 c -0.5231123,-0.236815 -0.859365,-0.725774 -0.859365,-1.2496387 0,-1.1041831 0.9142163,-1.7839997 1.8952684,-1.4093325 1.3953005,0.53287 1.1506855,2.5884552 -0.3278015,2.7546342 -0.2196974,0.02469 -0.5369004,-0.01816 -0.7081019,-0.09566 z"
     id="path3488"
     inkscape:connector-curvature="0" />
  <path
     style="fill:#008000"
     d="M 7.6980898,10.731871 C 6.7399903,10.091819 6.8049897,8.7079231 7.8173985,8.1916835 8.792713,7.6943586 9.9627119,8.3929373 9.9627119,9.4725995 c 0,1.1995905 -1.2846497,1.9139355 -2.2646221,1.2592715 z"
     id="path3490"
     inkscape:connector-curvature="0" />
  <path
     style="fill:#008000"
     d="m 14.800859,10.73652 c -0.849847,-0.492576 -0.98454,-1.5292362 -0.289058,-2.2247188 0.488795,-0.4887946 0.98866,-0.5842632 1.574429,-0.3006977 1.116663,0.5405677 1.130853,2.0613555 0.02413,2.5865285 -0.468438,0.222288 -0.851384,0.204416 -1.309504,-0.06111 z"
     id="path3492"
     inkscape:connector-curvature="0" />
  <path
     style="fill:#008000"
     d="M 14.749918,10.765913 C 14.230362,10.439665 13.99452,9.9844055 14.044546,9.4042889 c 0.126045,-1.461679 1.940468,-1.8979691 2.721367,-0.6543709 0.160869,0.2561875 0.199027,0.4543074 0.168066,0.8726114 -0.05738,0.7752866 -0.536163,1.2540676 -1.31145,1.3114496 -0.418304,0.03096 -0.616424,-0.0072 -0.872611,-0.168066 z"
     id="path3494"
     inkscape:connector-curvature="0" />
  <path
     style="fill:#008000"
     d="M 10.567355,17.310453 C 9.7205547,17.082719 8.8397769,16.564606 8.1609806,15.894915 7.5427472,15.284974 6.8106996,14.165494 6.9434092,14.032949 c 0.038679,-0.03863 0.3982517,-0.06577 0.7990511,-0.06032 l 0.7287261,0.0099 0.6721349,0.66756 c 0.9222277,0.91595 1.5297347,1.209143 2.6321067,1.270298 0.69479,0.03854 0.978803,0.0078 1.441642,-0.156079 0.77878,-0.275737 1.438995,-0.747895 1.889438,-1.351245 l 0.374195,-0.501219 0.664733,0.0016 c 0.949882,0.0022 1.031022,0.07937 0.715581,0.680386 -0.638125,1.21582 -2.110592,2.356461 -3.513793,2.721949 -0.739776,0.192687 -2.052977,0.190181 -2.779869,-0.0053 z"
     id="path3496"
     inkscape:connector-curvature="0" />
  <path
     style="fill:#008000"
     d="M 10.567355,17.310453 C 9.6958259,17.076069 8.828462,16.557294 8.1152542,15.843837 7.4696423,15.198 6.8055802,14.170604 6.944241,14.032118 c 0.038221,-0.03817 0.3974199,-0.06494 0.7982193,-0.05949 l 0.7287261,0.0099 0.661017,0.656646 c 0.3888265,0.386255 0.9122696,0.779988 1.2711866,0.956183 0.553515,0.271725 0.704593,0.299311 1.627118,0.297099 0.917688,-0.0022 1.071544,-0.03079 1.576272,-0.292947 0.747458,-0.388227 1.227484,-0.777587 1.572571,-1.275547 0.28534,-0.411746 0.286207,-0.412117 0.958208,-0.410561 0.958163,0.0022 1.03933,0.07855 0.723458,0.680386 -0.638125,1.21582 -2.110592,2.356461 -3.513793,2.721949 -0.739776,0.192687 -2.052977,0.190181 -2.779869,-0.0053 z"
     id="path3498"
     inkscape:connector-curvature="0" />
  <path
     style="fill:#008000"
     d="M 11.050383,21.936851 C 6.9245287,21.588384 3.436648,18.599895 2.2952004,14.435229 1.9739306,13.263049 1.9786082,10.744508 2.304294,9.5389831 3.0929121,6.619915 4.9763165,4.3286422 7.6576271,3.0263367 9.2338531,2.2607681 10.087883,2.0723364 11.979661,2.0727313 c 1.722653,3.6e-4 2.32907,0.1059482 3.745407,0.6521457 1.595047,0.6151148 3.4896,2.1335219 4.507366,3.6124677 2.709068,3.9366263 2.209633,9.3302483 -1.177605,12.7174843 -1.586839,1.586841 -3.875005,2.691616 -5.893394,2.845456 -0.398281,0.03036 -0.838554,0.0677 -0.978384,0.08298 -0.139831,0.01528 -0.649531,-0.0056 -1.132668,-0.04641 z m 3.059433,-2.230302 c 0.875659,-0.246592 1.981522,-0.778915 2.673708,-1.287027 1.299235,-0.953726 2.462602,-2.678876 2.941578,-4.362052 0.292882,-1.029218 0.316019,-2.874627 0.04964,-3.959165 C 19.388013,8.5237934 18.247395,6.7277451 17.046111,5.801731 15.483045,4.5968362 14.263723,4.1453113 12.373738,4.0715129 10.715023,4.0067449 9.8633788,4.1823263 8.420339,4.8865752 7.479466,5.3457508 7.2362301,5.523578 6.3740182,6.382619 5.5017503,7.2516789 5.3397436,7.4732229 4.8820825,8.42284 c -0.63273,1.3128737 -0.8346249,2.192636 -0.8346249,3.6369 0,3.262881 1.8844736,6.068329 4.927025,7.334947 1.5434624,0.642545 3.5322004,0.763319 5.1353334,0.311862 z"
     id="path3500"
     inkscape:connector-curvature="0" />
</svg>
