<?xml version="1.0" encoding="UTF-8" standalone="no"?>
<svg
   xmlns:dc="http://purl.org/dc/elements/1.1/"
   xmlns:cc="http://creativecommons.org/ns#"
   xmlns:rdf="http://www.w3.org/1999/02/22-rdf-syntax-ns#"
   xmlns:svg="http://www.w3.org/2000/svg"
   xmlns="http://www.w3.org/2000/svg"
   xmlns:sodipodi="http://sodipodi.sourceforge.net/DTD/sodipodi-0.dtd"
   xmlns:inkscape="http://www.inkscape.org/namespaces/inkscape"
   fill="#000000"
   height="24"
   viewBox="0 0 24 24"
   width="24"
   id="svg3357"
   version="1.1"
   inkscape:version="0.91 r13725"
   sodipodi:docname="neutral.svg">
  <metadata
     id="metadata3373">
    <rdf:RDF>
      <cc:Work
         rdf:about="">
        <dc:format>image/svg+xml</dc:format>
        <dc:type
           rdf:resource="http://purl.org/dc/dcmitype/StillImage" />
        <dc:title></dc:title>
      </cc:Work>
    </rdf:RDF>
  </metadata>
  <defs
     id="defs3371" />
  <sodipodi:namedview
     pagecolor="#ffffff"
     bordercolor="#666666"
     borderopacity="1"
     objecttolerance="10"
     gridtolerance="10"
     guidetolerance="10"
     inkscape:pageopacity="0"
     inkscape:pageshadow="2"
     inkscape:window-width="1855"
     inkscape:window-height="1056"
     id="namedview3369"
     showgrid="false"
     inkscape:zoom="9.8333333"
     inkscape:cx="12"
     inkscape:cy="12"
     inkscape:window-x="65"
     inkscape:window-y="24"
     inkscape:window-maximized="1"
     inkscape:current-layer="svg3357" />
  <path
     d="M9 14h6v1.5H9z"
     id="path3359" />
  <circle
     cx="15.5"
     cy="9.5"
     r="1.5"
     id="circle3361" />
  <circle
     cx="8.5"
     cy="9.5"
     r="1.5"
     id="circle3363" />
  <path
     d="M11.99 2C6.47 2 2 6.48 2 12s4.47 10 9.99 10C17.52 22 22 17.52 22 12S17.52 2 11.99 2zM12 20c-4.42 0-8-3.58-8-8s3.58-8 8-8 8 3.58 8 8-3.58 8-8 8z"
     id="path3365" />
  <path
     d="M0 0h24v24H0z"
     fill="none"
     id="path3367" />
  <path
     style="fill:#ffcc00"
     d="M 10.284827,21.801549 C 4.7723306,20.753157 1.2158726,15.609529 2.2280118,10.149153 2.4557353,8.9206096 3.0703632,7.4249616 3.7742765,6.3864407 4.2288739,5.7157488 5.5323313,4.3959072 6.2338983,3.8959019 8.2012076,2.4938048 10.716073,1.8370002 13.05072,2.1155604 c 4.599554,0.5487995 8.134138,3.9761578 8.798279,8.5313736 0.451167,3.094468 -0.736474,6.425279 -3.067828,8.603913 -1.212625,1.133189 -2.798591,2.00248 -4.371663,2.396171 -1.094926,0.274026 -3.101157,0.349189 -4.124681,0.154531 z m 3.57619,-1.985459 c 3.028886,-0.729872 5.326146,-3.082405 6.002116,-6.146531 0.239332,-1.08487 0.166731,-2.960551 -0.153975,-3.9780336 C 19.278047,8.3237675 18.734588,7.4394099 17.677957,6.3861981 17.144742,5.8547088 16.441472,5.2633041 16.115134,5.0719656 14.787022,4.2932664 12.945423,3.8646521 11.430954,3.9817685 6.0984632,4.3941388 2.6589444,9.6859695 4.4442603,14.731063 c 0.4196391,1.18585 0.8742811,1.875771 1.9419378,2.946894 1.0029192,1.006175 1.9083453,1.579583 3.1095835,1.969302 1.2855374,0.417069 3.0516154,0.485375 4.3652354,0.168831 z"
     id="path3375"
     inkscape:connector-curvature="0" />
  <path
     style="fill:#ffcc00"
     d="M 10.047458,21.68615 C 5.25503,20.65846 1.9029504,16.345122 2.1484885,11.522034 2.2781115,8.9758571 3.2419604,6.8503763 5.1017495,5.0094988 6.4756079,3.6496107 7.9575794,2.8120444 9.8071716,2.3501339 10.905062,2.0759506 13.203549,2.1027437 14.311681,2.4026424 c 3.612507,0.9776687 6.214686,3.5226696 7.246568,7.0873391 0.204569,0.7066875 0.234305,1.0288225 0.229822,2.4896795 -0.0043,1.398956 -0.04179,1.809588 -0.225532,2.469537 -0.922082,3.31195 -3.399173,5.915376 -6.633725,6.972052 -1.312399,0.428739 -3.550846,0.550215 -4.881356,0.2649 z m 3.219102,-1.803482 c -0.06457,-0.04402 0.06564,-0.05204 0.289372,-0.01781 0.319581,0.04889 0.37408,0.03703 0.254237,-0.0553 -0.123102,-0.09485 -0.09961,-0.106016 0.121736,-0.05787 0.316162,0.06877 1.438095,-0.312044 1.34814,-0.457594 -0.03188,-0.05158 0.04766,-0.08241 0.176759,-0.06851 0.154187,0.0166 0.224571,-0.02263 0.205139,-0.114323 -0.01833,-0.08649 0.02745,-0.117711 0.120325,-0.08207 0.211932,0.08133 1.225717,-0.608774 1.925827,-1.310943 0.769076,-0.771338 1.615841,-2.050672 1.532045,-2.314688 -0.03834,-0.120791 -0.022,-0.170443 0.0429,-0.130334 0.154538,0.09551 0.540739,-1.009849 0.468641,-1.341313 -0.04815,-0.221344 -0.03698,-0.244838 0.05787,-0.121736 0.09233,0.119843 0.10419,0.06534 0.0553,-0.254237 -0.03423,-0.223729 -0.02621,-0.353946 0.01781,-0.289372 0.04402,0.06457 0.08004,-0.491649 0.08004,-1.236052 0,-0.744402 -0.03775,-1.300625 -0.08388,-1.236051 -0.04646,0.06502 -0.05749,-0.04345 -0.02472,-0.243127 0.07094,-0.432334 -0.150925,-1.2325521 -0.576729,-2.0801436 -0.414196,-0.8244798 -0.680805,-1.1856636 -0.814304,-1.1031572 -0.06985,0.043173 -0.08842,0.00936 -0.04993,-0.090944 C 18.467547,7.135321 18.183379,6.7520265 18.073103,6.8184222 18.049676,6.8325273 17.819034,6.6266949 17.560565,6.3610169 17.302096,6.095339 17.114698,5.8779661 17.144123,5.8779661 c 0.02943,0 -0.02653,-0.088439 -0.124357,-0.1965316 -0.102299,-0.113039 -0.245691,-0.1705018 -0.337529,-0.1352605 -0.100303,0.03849 -0.134117,0.019926 -0.09094,-0.049929 0.130368,-0.2109412 -1.222162,-0.9858227 -1.520737,-0.8712487 -0.111599,0.042825 -0.150659,0.027637 -0.107698,-0.041876 0.09267,-0.1499517 -0.502325,-0.34403 -0.834234,-0.272112 -0.215424,0.046678 -0.237861,0.035347 -0.115065,-0.058106 0.119728,-0.091118 0.07598,-0.1024978 -0.20339,-0.052903 -0.276104,0.049016 -0.32172,0.03765 -0.203389,-0.050682 0.116781,-0.087175 0.04526,-0.099134 -0.305085,-0.051013 -0.282729,0.038834 -0.40708,0.027904 -0.325367,-0.028599 0.08184,-0.056592 -0.305818,-0.092141 -1.016949,-0.093254 -0.734784,-0.00115 -1.075863,0.029956 -0.94582,0.086258 0.132001,0.057149 0.02492,0.068454 -0.305084,0.032207 -0.384784,-0.042264 -0.471368,-0.028591 -0.355933,0.05621 0.117139,0.086052 0.06993,0.097395 -0.203389,0.048872 -0.2793656,-0.049595 -0.3231183,-0.038215 -0.2033903,0.052903 0.1215223,0.092483 0.093939,0.1032491 -0.1356395,0.052942 -0.2030354,-0.044491 -0.2668781,-0.028679 -0.2160784,0.053517 0.050407,0.08156 0.00324,0.094809 -0.1567567,0.044029 -0.1714784,-0.054425 -0.2087354,-0.040075 -0.1485949,0.057234 0.057183,0.092524 0.031254,0.1110644 -0.090165,0.064472 C 8.9981189,4.4481916 8.5039925,4.6478575 8.5820719,4.7741927 8.6378471,4.8644389 8.6206807,4.8713353 8.2415401,4.910998 7.9055817,4.9461433 6.9282922,5.6256617 6.276977,6.276977 5.6256617,6.9282922 4.9461433,7.9055817 4.910998,8.2415401 4.8713353,8.6206807 4.8644389,8.6378471 4.7741927,8.5820719 4.6478575,8.5039925 4.4481916,8.9981189 4.5250959,9.1985283 c 0.046593,0.1214188 0.028052,0.1473478 -0.064472,0.090165 -0.097309,-0.060141 -0.1116596,-0.022884 -0.057234,0.1485949 0.05078,0.1599947 0.037532,0.2071639 -0.044029,0.1567567 -0.082196,-0.0508 -0.098008,0.013043 -0.053517,0.2160784 0.050307,0.2295788 0.039541,0.2571618 -0.052942,0.1356395 C 4.1617849,9.8260347 4.1504047,9.8697874 4.2,10.149153 c 0.048523,0.273322 0.03718,0.320528 -0.048872,0.203389 -0.084801,-0.115435 -0.098475,-0.02885 -0.05621,0.355933 0.036138,0.329002 0.024852,0.436685 -0.031973,0.305084 -0.056001,-0.129692 -0.087824,0.22037 -0.087824,0.966102 0,0.745733 0.031822,1.095794 0.087824,0.966102 0.056825,-0.131602 0.068111,-0.02392 0.031973,0.305084 -0.042264,0.384785 -0.028591,0.471368 0.05621,0.355933 0.086052,-0.117139 0.097395,-0.06993 0.048872,0.203389 -0.049595,0.279366 -0.038215,0.323118 0.052903,0.20339 0.093453,-0.122796 0.1047837,-0.100359 0.058106,0.115065 -0.071918,0.331909 0.1221603,0.926909 0.272112,0.834234 0.069513,-0.04296 0.0847,-0.0039 0.041876,0.107698 -0.114574,0.298575 0.6603075,1.651105 0.8712487,1.520737 0.069856,-0.04317 0.08842,-0.0094 0.049929,0.09094 -0.035241,0.09184 0.022222,0.23523 0.1352605,0.337529 0.1080924,0.09782 0.1965316,0.153783 0.1965316,0.124357 0,-0.02942 0.2173729,0.157973 0.4830508,0.416442 0.265678,0.258469 0.4715104,0.489111 0.4574053,0.512538 -0.066396,0.110276 0.3168988,0.394444 0.4586626,0.340045 0.1003038,-0.03849 0.1341174,-0.01993 0.090944,0.04993 -0.082506,0.133499 0.2786774,0.400108 1.1031572,0.814304 0.8475915,0.425804 1.6478096,0.647668 2.0801436,0.576729 0.199677,-0.03276 0.308151,-0.02173 0.243127,0.02472 -0.06457,0.04613 0.491649,0.08388 1.236051,0.08388 0.744403,0 1.300627,-0.03602 1.236052,-0.08004 z"
     id="path3377"
     inkscape:connector-curvature="0" />
  <path
     style="fill:#ffcc00"
     d="m 9.0305085,14.777807 0,-0.764248 3.0044555,0 3.004455,0 -0.02988,0.737288 -0.02988,0.737289 -2.974576,0.02696 -2.9745765,0.02696 0,-0.764248 z"
     id="path3379"
     inkscape:connector-curvature="0" />
  <path
     style="fill:#ffcc00"
     d="m 9.0050847,15.47981 c -0.041949,-0.04203 -0.076271,-0.389132 -0.076271,-0.771335 l 0,-0.694916 3.0511854,0 3.051185,0 -0.01115,0.741571 -0.01115,0.741571 -2.963766,0.02976 c -1.630072,0.01637 -2.9980891,-0.0046 -3.0400383,-0.04665 z"
     id="path3381"
     inkscape:connector-curvature="0" />
  <path
     style="fill:#ffcc00"
     d="m 14.800859,10.73652 c -0.849847,-0.492576 -0.98454,-1.5292362 -0.289058,-2.2247188 0.488795,-0.4887946 0.98866,-0.5842632 1.574429,-0.3006977 1.116663,0.5405677 1.130853,2.0613555 0.02413,2.5865285 -0.468438,0.222288 -0.851384,0.204416 -1.309504,-0.06111 z"
     id="path3383"
     inkscape:connector-curvature="0" />
  <path
     style="fill:#ffcc00"
     d="m 14.877966,10.671807 c -0.451111,-0.278648 -0.662768,-0.55634 -0.727342,-0.9542662 -0.116336,-0.7168952 0.622337,-1.60279 1.335695,-1.6019064 0.661414,8.192e-4 1.373553,0.727808 1.374318,1.4029751 0.0011,1.0071645 -1.142347,1.6722615 -1.982671,1.1531975 z"
     id="path3385"
     inkscape:connector-curvature="0" />
  <path
     style="fill:#ffcc00"
     d="m 7.9576701,10.824981 c -0.5231123,-0.236815 -0.859365,-0.725774 -0.859365,-1.2496387 0,-1.1041831 0.9142163,-1.7839997 1.8952684,-1.4093325 1.3953005,0.53287 1.1506855,2.5884552 -0.3278015,2.7546342 -0.2196974,0.02469 -0.5369004,-0.01816 -0.7081019,-0.09566 z"
     id="path3387"
     inkscape:connector-curvature="0" />
  <path
     style="fill:#ffcc00"
     d="M 7.8474625,10.66596 C 7.3826886,10.382554 7.1999481,10.065078 7.2003801,9.5417791 7.2012425,8.4972485 8.1611387,7.8164017 9.0101349,8.2581342 9.4850111,8.5052121 9.7624824,8.8855688 9.8163247,9.3632564 9.9414723,10.473563 8.7858679,11.238172 7.8474625,10.66596 Z"
     id="path3389"
     inkscape:connector-curvature="0" />
</svg>
